{
	"asset":{
		"generator":"Khronos glTF Blender I/O v3.5.30",
		"version":"2.0"
	},
	"scene":0,
	"scenes":[
		{
			"name":"Scene",
			"nodes":[
				0,
				1
			]
		}
	],
	"nodes":[
		{
			"name":"Cube"
		},
		{
			"mesh":0,
			"name":"\u7403",
			"scale":[
				0.36718231439590454,
				0.36718231439590454,
				0.36718231439590454
			]
		}
	],
	"meshes":[
		{
			"name":"\u7403.001",
			"primitives":[
				{
					"attributes":{
						"POSITION":0,
						"TEXCOORD_0":1,
						"NORMAL":2
					},
					"indices":3
				}
			]
		}
	],
	"accessors":[
		{
			"bufferView":0,
			"componentType":5126,
			"count":2122,
			"max":[
				0.9999997019767761,
				1,
				0.9999993443489075
			],
			"min":[
				-0.9999990463256836,
				-2.333186388015747,
				-1
			],
			"type":"VEC3"
		},
		{
			"bufferView":1,
			"componentType":5126,
			"count":2122,
			"type":"VEC2"
		},
		{
			"bufferView":2,
			"componentType":5126,
			"count":2122,
			"type":"VEC3"
		},
		{
			"bufferView":3,
			"componentType":5123,
			"count":3072,
			"type":"SCALAR"
		}
	],
	"bufferViews":[
		{
			"buffer":0,
			"byteLength":25464,
			"byteOffset":0,
			"target":34962
		},
		{
			"buffer":0,
			"byteLength":16976,
			"byteOffset":25464,
			"target":34962
		},
		{
			"buffer":0,
			"byteLength":25464,
			"byteOffset":42440,
			"target":34962
		},
		{
			"buffer":0,
			"byteLength":6144,
			"byteOffset":67904,
			"target":34963
		}
	],
	"buffers":[
		{
			"byteLength":74048,
			"uri":"playerBullet.bin"
		}
	]
}
