{
	"asset":{
		"generator":"Khronos glTF Blender I/O v3.5.30",
		"version":"2.0"
	},
	"scene":0,
	"scenes":[
		{
			"name":"Scene",
			"nodes":[
				0
			]
		}
	],
	"nodes":[
		{
			"mesh":0,
			"name":"\u7acb\u65b9\u4f53_cell.011"
		}
	],
	"materials":[
		{
			"doubleSided":true,
			"name":"\u30de\u30c6\u30ea\u30a2\u30eb.001",
			"pbrMetallicRoughness":{
				"baseColorTexture":{
					"index":0
				},
				"metallicFactor":0,
				"roughnessFactor":0.5
			}
		},
		{
			"doubleSided":true,
			"name":"Inner",
			"pbrMetallicRoughness":{
				"baseColorTexture":{
					"index":1
				},
				"metallicFactor":0,
				"roughnessFactor":0.5
			}
		}
	],
	"meshes":[
		{
			"name":"\u7acb\u65b9\u4f53_cell.031",
			"primitives":[
				{
					"attributes":{
						"POSITION":0,
						"TEXCOORD_0":1,
						"NORMAL":2
					},
					"indices":3,
					"material":0
				},
				{
					"attributes":{
						"POSITION":4,
						"TEXCOORD_0":5,
						"NORMAL":6
					},
					"indices":7,
					"material":1
				}
			]
		}
	],
	"textures":[
		{
			"sampler":0,
			"source":0
		},
		{
			"sampler":0,
			"source":1
		}
	],
	"images":[
		{
			"mimeType":"image/png",
			"name":"block",
			"uri":"block.png"
		},
		{
			"mimeType":"image/png",
			"name":"black2x2",
			"uri":"black2x2.png"
		}
	],
	"accessors":[
		{
			"bufferView":0,
			"componentType":5126,
			"count":33,
			"max":[
				0.506483256816864,
				0.462980717420578,
				0.5871726274490356
			],
			"min":[
				-0.4080697000026703,
				-0.26236292719841003,
				-0.5334821939468384
			],
			"type":"VEC3"
		},
		{
			"bufferView":1,
			"componentType":5126,
			"count":33,
			"type":"VEC2"
		},
		{
			"bufferView":2,
			"componentType":5126,
			"count":33,
			"type":"VEC3"
		},
		{
			"bufferView":3,
			"componentType":5123,
			"count":66,
			"type":"SCALAR"
		},
		{
			"bufferView":4,
			"componentType":5126,
			"count":84,
			"max":[
				0.506483256816864,
				0.462980717420578,
				0.5871726274490356
			],
			"min":[
				-0.4097115695476532,
				-0.26236292719841003,
				-0.5825927257537842
			],
			"type":"VEC3"
		},
		{
			"bufferView":5,
			"componentType":5126,
			"count":84,
			"type":"VEC2"
		},
		{
			"bufferView":6,
			"componentType":5126,
			"count":84,
			"type":"VEC3"
		},
		{
			"bufferView":7,
			"componentType":5123,
			"count":114,
			"type":"SCALAR"
		}
	],
	"bufferViews":[
		{
			"buffer":0,
			"byteLength":396,
			"byteOffset":0,
			"target":34962
		},
		{
			"buffer":0,
			"byteLength":264,
			"byteOffset":396,
			"target":34962
		},
		{
			"buffer":0,
			"byteLength":396,
			"byteOffset":660,
			"target":34962
		},
		{
			"buffer":0,
			"byteLength":132,
			"byteOffset":1056,
			"target":34963
		},
		{
			"buffer":0,
			"byteLength":1008,
			"byteOffset":1188,
			"target":34962
		},
		{
			"buffer":0,
			"byteLength":672,
			"byteOffset":2196,
			"target":34962
		},
		{
			"buffer":0,
			"byteLength":1008,
			"byteOffset":2868,
			"target":34962
		},
		{
			"buffer":0,
			"byteLength":228,
			"byteOffset":3876,
			"target":34963
		}
	],
	"samplers":[
		{
			"magFilter":9729,
			"minFilter":9987
		}
	],
	"buffers":[
		{
			"byteLength":4104,
			"uri":"blockParticle_10.bin"
		}
	]
}
