{
	"asset":{
		"generator":"Khronos glTF Blender I/O v3.5.30",
		"version":"2.0"
	},
	"scene":0,
	"scenes":[
		{
			"name":"Scene",
			"nodes":[
				0
			]
		}
	],
	"nodes":[
		{
			"mesh":0,
			"name":"\u7acb\u65b9\u4f53_cell.010"
		}
	],
	"materials":[
		{
			"doubleSided":true,
			"name":"\u30de\u30c6\u30ea\u30a2\u30eb.001",
			"pbrMetallicRoughness":{
				"baseColorTexture":{
					"index":0
				},
				"metallicFactor":0,
				"roughnessFactor":0.5
			}
		},
		{
			"doubleSided":true,
			"name":"Inner",
			"pbrMetallicRoughness":{
				"baseColorTexture":{
					"index":1
				},
				"metallicFactor":0,
				"roughnessFactor":0.5
			}
		}
	],
	"meshes":[
		{
			"name":"\u7acb\u65b9\u4f53_cell.030",
			"primitives":[
				{
					"attributes":{
						"POSITION":0,
						"TEXCOORD_0":1,
						"NORMAL":2
					},
					"indices":3,
					"material":0
				},
				{
					"attributes":{
						"POSITION":4,
						"TEXCOORD_0":5,
						"NORMAL":6
					},
					"indices":7,
					"material":1
				}
			]
		}
	],
	"textures":[
		{
			"sampler":0,
			"source":0
		},
		{
			"sampler":0,
			"source":1
		}
	],
	"images":[
		{
			"mimeType":"image/png",
			"name":"block",
			"uri":"block.png"
		},
		{
			"mimeType":"image/png",
			"name":"black2x2",
			"uri":"black2x2.png"
		}
	],
	"accessors":[
		{
			"bufferView":0,
			"componentType":5126,
			"count":26,
			"max":[
				0.5555152297019958,
				0.5510314702987671,
				0.6048531532287598
			],
			"min":[
				-0.6330571174621582,
				-0.7077383995056152,
				-0.5824752449989319
			],
			"type":"VEC3"
		},
		{
			"bufferView":1,
			"componentType":5126,
			"count":26,
			"type":"VEC2"
		},
		{
			"bufferView":2,
			"componentType":5126,
			"count":26,
			"type":"VEC3"
		},
		{
			"bufferView":3,
			"componentType":5123,
			"count":60,
			"type":"SCALAR"
		},
		{
			"bufferView":4,
			"componentType":5126,
			"count":102,
			"max":[
				0.6044164896011353,
				0.5510314702987671,
				0.7253117561340332
			],
			"min":[
				-0.6330571174621582,
				-0.8591005802154541,
				-0.5824752449989319
			],
			"type":"VEC3"
		},
		{
			"bufferView":5,
			"componentType":5126,
			"count":102,
			"type":"VEC2"
		},
		{
			"bufferView":6,
			"componentType":5126,
			"count":102,
			"type":"VEC3"
		},
		{
			"bufferView":7,
			"componentType":5123,
			"count":138,
			"type":"SCALAR"
		}
	],
	"bufferViews":[
		{
			"buffer":0,
			"byteLength":312,
			"byteOffset":0,
			"target":34962
		},
		{
			"buffer":0,
			"byteLength":208,
			"byteOffset":312,
			"target":34962
		},
		{
			"buffer":0,
			"byteLength":312,
			"byteOffset":520,
			"target":34962
		},
		{
			"buffer":0,
			"byteLength":120,
			"byteOffset":832,
			"target":34963
		},
		{
			"buffer":0,
			"byteLength":1224,
			"byteOffset":952,
			"target":34962
		},
		{
			"buffer":0,
			"byteLength":816,
			"byteOffset":2176,
			"target":34962
		},
		{
			"buffer":0,
			"byteLength":1224,
			"byteOffset":2992,
			"target":34962
		},
		{
			"buffer":0,
			"byteLength":276,
			"byteOffset":4216,
			"target":34963
		}
	],
	"samplers":[
		{
			"magFilter":9729,
			"minFilter":9987
		}
	],
	"buffers":[
		{
			"byteLength":4492,
			"uri":"blockParticle_9.bin"
		}
	]
}
