{
	"asset":{
		"generator":"Khronos glTF Blender I/O v3.5.30",
		"version":"2.0"
	},
	"scene":0,
	"scenes":[
		{
			"name":"Scene",
			"nodes":[
				0
			]
		}
	],
	"nodes":[
		{
			"mesh":0,
			"name":"\u7acb\u65b9\u4f53_cell.018"
		}
	],
	"materials":[
		{
			"doubleSided":true,
			"name":"\u30de\u30c6\u30ea\u30a2\u30eb.001",
			"pbrMetallicRoughness":{
				"baseColorTexture":{
					"index":0
				},
				"metallicFactor":0,
				"roughnessFactor":0.5
			}
		},
		{
			"doubleSided":true,
			"name":"Inner",
			"pbrMetallicRoughness":{
				"baseColorTexture":{
					"index":1
				},
				"metallicFactor":0,
				"roughnessFactor":0.5
			}
		}
	],
	"meshes":[
		{
			"name":"\u7acb\u65b9\u4f53_cell.037",
			"primitives":[
				{
					"attributes":{
						"POSITION":0,
						"TEXCOORD_0":1,
						"NORMAL":2
					},
					"indices":3,
					"material":0
				},
				{
					"attributes":{
						"POSITION":4,
						"TEXCOORD_0":5,
						"NORMAL":6
					},
					"indices":7,
					"material":1
				}
			]
		}
	],
	"textures":[
		{
			"sampler":0,
			"source":0
		},
		{
			"sampler":0,
			"source":1
		}
	],
	"images":[
		{
			"mimeType":"image/png",
			"name":"block",
			"uri":"block.png"
		},
		{
			"mimeType":"image/png",
			"name":"black2x2",
			"uri":"black2x2.png"
		}
	],
	"accessors":[
		{
			"bufferView":0,
			"componentType":5126,
			"count":31,
			"max":[
				0.5753883719444275,
				0.5681413412094116,
				-0.011389374732971191
			],
			"min":[
				-0.4012608230113983,
				-0.3690849542617798,
				-0.36016571521759033
			],
			"type":"VEC3"
		},
		{
			"bufferView":1,
			"componentType":5126,
			"count":31,
			"type":"VEC2"
		},
		{
			"bufferView":2,
			"componentType":5126,
			"count":31,
			"type":"VEC3"
		},
		{
			"bufferView":3,
			"componentType":5123,
			"count":60,
			"type":"SCALAR"
		},
		{
			"bufferView":4,
			"componentType":5126,
			"count":94,
			"max":[
				0.5753883719444275,
				0.5681413412094116,
				0.4949096441268921
			],
			"min":[
				-0.4012608230113983,
				-0.3690849542617798,
				-0.36016571521759033
			],
			"type":"VEC3"
		},
		{
			"bufferView":5,
			"componentType":5126,
			"count":94,
			"type":"VEC2"
		},
		{
			"bufferView":6,
			"componentType":5126,
			"count":94,
			"type":"VEC3"
		},
		{
			"bufferView":7,
			"componentType":5123,
			"count":120,
			"type":"SCALAR"
		}
	],
	"bufferViews":[
		{
			"buffer":0,
			"byteLength":372,
			"byteOffset":0,
			"target":34962
		},
		{
			"buffer":0,
			"byteLength":248,
			"byteOffset":372,
			"target":34962
		},
		{
			"buffer":0,
			"byteLength":372,
			"byteOffset":620,
			"target":34962
		},
		{
			"buffer":0,
			"byteLength":120,
			"byteOffset":992,
			"target":34963
		},
		{
			"buffer":0,
			"byteLength":1128,
			"byteOffset":1112,
			"target":34962
		},
		{
			"buffer":0,
			"byteLength":752,
			"byteOffset":2240,
			"target":34962
		},
		{
			"buffer":0,
			"byteLength":1128,
			"byteOffset":2992,
			"target":34962
		},
		{
			"buffer":0,
			"byteLength":240,
			"byteOffset":4120,
			"target":34963
		}
	],
	"samplers":[
		{
			"magFilter":9729,
			"minFilter":9987
		}
	],
	"buffers":[
		{
			"byteLength":4360,
			"uri":"blockParticle_16.bin"
		}
	]
}
