{
	"asset":{
		"generator":"Khronos glTF Blender I/O v3.5.30",
		"version":"2.0"
	},
	"scene":0,
	"scenes":[
		{
			"name":"Scene",
			"nodes":[
				0
			]
		}
	],
	"nodes":[
		{
			"mesh":0,
			"name":"\u7acb\u65b9\u4f53_cell.003"
		}
	],
	"materials":[
		{
			"doubleSided":true,
			"name":"\u30de\u30c6\u30ea\u30a2\u30eb.001",
			"pbrMetallicRoughness":{
				"baseColorTexture":{
					"index":0
				},
				"metallicFactor":0,
				"roughnessFactor":0.5
			}
		},
		{
			"doubleSided":true,
			"name":"Inner",
			"pbrMetallicRoughness":{
				"baseColorTexture":{
					"index":1
				},
				"metallicFactor":0,
				"roughnessFactor":0.5
			}
		}
	],
	"meshes":[
		{
			"name":"\u7acb\u65b9\u4f53_cell.024",
			"primitives":[
				{
					"attributes":{
						"POSITION":0,
						"TEXCOORD_0":1,
						"NORMAL":2
					},
					"indices":3,
					"material":0
				},
				{
					"attributes":{
						"POSITION":4,
						"TEXCOORD_0":5,
						"NORMAL":6
					},
					"indices":7,
					"material":1
				}
			]
		}
	],
	"textures":[
		{
			"sampler":0,
			"source":0
		},
		{
			"sampler":0,
			"source":1
		}
	],
	"images":[
		{
			"mimeType":"image/png",
			"name":"block",
			"uri":"block.png"
		},
		{
			"mimeType":"image/png",
			"name":"black2x2",
			"uri":"black2x2.png"
		}
	],
	"accessors":[
		{
			"bufferView":0,
			"componentType":5126,
			"count":19,
			"max":[
				0.406630277633667,
				0.38064122200012207,
				0.33704522252082825
			],
			"min":[
				-0.46396058797836304,
				-0.4929733872413635,
				-0.5090899467468262
			],
			"type":"VEC3"
		},
		{
			"bufferView":1,
			"componentType":5126,
			"count":19,
			"type":"VEC2"
		},
		{
			"bufferView":2,
			"componentType":5126,
			"count":19,
			"type":"VEC3"
		},
		{
			"bufferView":3,
			"componentType":5123,
			"count":39,
			"type":"SCALAR"
		},
		{
			"bufferView":4,
			"componentType":5126,
			"count":53,
			"max":[
				0.406630277633667,
				0.38064122200012207,
				0.33704522252082825
			],
			"min":[
				-0.46396058797836304,
				-0.4929733872413635,
				-0.5363833904266357
			],
			"type":"VEC3"
		},
		{
			"bufferView":5,
			"componentType":5126,
			"count":53,
			"type":"VEC2"
		},
		{
			"bufferView":6,
			"componentType":5126,
			"count":53,
			"type":"VEC3"
		},
		{
			"bufferView":7,
			"componentType":5123,
			"count":75,
			"type":"SCALAR"
		}
	],
	"bufferViews":[
		{
			"buffer":0,
			"byteLength":228,
			"byteOffset":0,
			"target":34962
		},
		{
			"buffer":0,
			"byteLength":152,
			"byteOffset":228,
			"target":34962
		},
		{
			"buffer":0,
			"byteLength":228,
			"byteOffset":380,
			"target":34962
		},
		{
			"buffer":0,
			"byteLength":78,
			"byteOffset":608,
			"target":34963
		},
		{
			"buffer":0,
			"byteLength":636,
			"byteOffset":688,
			"target":34962
		},
		{
			"buffer":0,
			"byteLength":424,
			"byteOffset":1324,
			"target":34962
		},
		{
			"buffer":0,
			"byteLength":636,
			"byteOffset":1748,
			"target":34962
		},
		{
			"buffer":0,
			"byteLength":150,
			"byteOffset":2384,
			"target":34963
		}
	],
	"samplers":[
		{
			"magFilter":9729,
			"minFilter":9987
		}
	],
	"buffers":[
		{
			"byteLength":2536,
			"uri":"blockParticle_3.bin"
		}
	]
}
