{
	"asset":{
		"generator":"Khronos glTF Blender I/O v3.5.30",
		"version":"2.0"
	},
	"scene":0,
	"scenes":[
		{
			"name":"Scene",
			"nodes":[
				0
			]
		}
	],
	"nodes":[
		{
			"mesh":0,
			"name":"\u7acb\u65b9\u4f53_cell.016"
		}
	],
	"materials":[
		{
			"doubleSided":true,
			"name":"\u30de\u30c6\u30ea\u30a2\u30eb.001",
			"pbrMetallicRoughness":{
				"baseColorTexture":{
					"index":0
				},
				"metallicFactor":0,
				"roughnessFactor":0.5
			}
		},
		{
			"doubleSided":true,
			"name":"Inner",
			"pbrMetallicRoughness":{
				"baseColorTexture":{
					"index":1
				},
				"metallicFactor":0,
				"roughnessFactor":0.5
			}
		}
	],
	"meshes":[
		{
			"name":"\u7acb\u65b9\u4f53_cell.035",
			"primitives":[
				{
					"attributes":{
						"POSITION":0,
						"TEXCOORD_0":1,
						"NORMAL":2
					},
					"indices":3,
					"material":0
				},
				{
					"attributes":{
						"POSITION":4,
						"TEXCOORD_0":5,
						"NORMAL":6
					},
					"indices":7,
					"material":1
				}
			]
		}
	],
	"textures":[
		{
			"sampler":0,
			"source":0
		},
		{
			"sampler":0,
			"source":1
		}
	],
	"images":[
		{
			"mimeType":"image/png",
			"name":"block",
			"uri":"block.png"
		},
		{
			"mimeType":"image/png",
			"name":"black2x2",
			"uri":"black2x2.png"
		}
	],
	"accessors":[
		{
			"bufferView":0,
			"componentType":5126,
			"count":29,
			"max":[
				0.6063816547393799,
				0.7552507519721985,
				0.5383645296096802
			],
			"min":[
				-0.6021273136138916,
				-0.3981545567512512,
				-0.6009843945503235
			],
			"type":"VEC3"
		},
		{
			"bufferView":1,
			"componentType":5126,
			"count":29,
			"type":"VEC2"
		},
		{
			"bufferView":2,
			"componentType":5126,
			"count":29,
			"type":"VEC3"
		},
		{
			"bufferView":3,
			"componentType":5123,
			"count":63,
			"type":"SCALAR"
		},
		{
			"bufferView":4,
			"componentType":5126,
			"count":135,
			"max":[
				0.6063816547393799,
				0.8648523688316345,
				0.5383645296096802
			],
			"min":[
				-0.738025426864624,
				-0.6313658952713013,
				-0.7010822296142578
			],
			"type":"VEC3"
		},
		{
			"bufferView":5,
			"componentType":5126,
			"count":135,
			"type":"VEC2"
		},
		{
			"bufferView":6,
			"componentType":5126,
			"count":135,
			"type":"VEC3"
		},
		{
			"bufferView":7,
			"componentType":5123,
			"count":165,
			"type":"SCALAR"
		}
	],
	"bufferViews":[
		{
			"buffer":0,
			"byteLength":348,
			"byteOffset":0,
			"target":34962
		},
		{
			"buffer":0,
			"byteLength":232,
			"byteOffset":348,
			"target":34962
		},
		{
			"buffer":0,
			"byteLength":348,
			"byteOffset":580,
			"target":34962
		},
		{
			"buffer":0,
			"byteLength":126,
			"byteOffset":928,
			"target":34963
		},
		{
			"buffer":0,
			"byteLength":1620,
			"byteOffset":1056,
			"target":34962
		},
		{
			"buffer":0,
			"byteLength":1080,
			"byteOffset":2676,
			"target":34962
		},
		{
			"buffer":0,
			"byteLength":1620,
			"byteOffset":3756,
			"target":34962
		},
		{
			"buffer":0,
			"byteLength":330,
			"byteOffset":5376,
			"target":34963
		}
	],
	"samplers":[
		{
			"magFilter":9729,
			"minFilter":9987
		}
	],
	"buffers":[
		{
			"byteLength":5708,
			"uri":"blockParticle_14.bin"
		}
	]
}
