{
	"asset":{
		"generator":"Khronos glTF Blender I/O v3.5.30",
		"version":"2.0"
	},
	"scene":0,
	"scenes":[
		{
			"name":"Scene",
			"nodes":[
				0
			]
		}
	],
	"nodes":[
		{
			"mesh":0,
			"name":"\u30c6\u30ad\u30b9\u30c8.005"
		}
	],
	"meshes":[
		{
			"name":"\u30c6\u30ad\u30b9\u30c8.026",
			"primitives":[
				{
					"attributes":{
						"POSITION":0,
						"TEXCOORD_0":1,
						"NORMAL":2
					},
					"indices":3
				}
			]
		}
	],
	"accessors":[
		{
			"bufferView":0,
			"componentType":5126,
			"count":3280,
			"max":[
				1.6786901950836182,
				2.7376670837402344,
				0.10000010579824448
			],
			"min":[
				-1.6721735000610352,
				-2.8386855125427246,
				-0.10000011324882507
			],
			"type":"VEC3"
		},
		{
			"bufferView":1,
			"componentType":5126,
			"count":3280,
			"type":"VEC2"
		},
		{
			"bufferView":2,
			"componentType":5126,
			"count":3280,
			"type":"VEC3"
		},
		{
			"bufferView":3,
			"componentType":5123,
			"count":16554,
			"type":"SCALAR"
		}
	],
	"bufferViews":[
		{
			"buffer":0,
			"byteLength":39360,
			"byteOffset":0,
			"target":34962
		},
		{
			"buffer":0,
			"byteLength":26240,
			"byteOffset":39360,
			"target":34962
		},
		{
			"buffer":0,
			"byteLength":39360,
			"byteOffset":65600,
			"target":34962
		},
		{
			"buffer":0,
			"byteLength":33108,
			"byteOffset":104960,
			"target":34963
		}
	],
	"buffers":[
		{
			"byteLength":138068,
			"uri":"number_5.bin"
		}
	]
}
