{
	"asset":{
		"generator":"Khronos glTF Blender I/O v3.5.30",
		"version":"2.0"
	},
	"scene":0,
	"scenes":[
		{
			"name":"Scene",
			"nodes":[
				0
			]
		}
	],
	"nodes":[
		{
			"mesh":0,
			"name":"\u30c6\u30ad\u30b9\u30c8.007"
		}
	],
	"meshes":[
		{
			"name":"\u30c6\u30ad\u30b9\u30c8.028",
			"primitives":[
				{
					"attributes":{
						"POSITION":0,
						"TEXCOORD_0":1,
						"NORMAL":2
					},
					"indices":3
				}
			]
		}
	],
	"accessors":[
		{
			"bufferView":0,
			"componentType":5126,
			"count":102,
			"max":[
				0.8673510551452637,
				2.7376670837402344,
				0.10000010579824448
			],
			"min":[
				-1.8481265306472778,
				-2.7376670837402344,
				-0.10000010579824448
			],
			"type":"VEC3"
		},
		{
			"bufferView":1,
			"componentType":5126,
			"count":102,
			"type":"VEC2"
		},
		{
			"bufferView":2,
			"componentType":5126,
			"count":102,
			"type":"VEC3"
		},
		{
			"bufferView":3,
			"componentType":5123,
			"count":450,
			"type":"SCALAR"
		}
	],
	"bufferViews":[
		{
			"buffer":0,
			"byteLength":1224,
			"byteOffset":0,
			"target":34962
		},
		{
			"buffer":0,
			"byteLength":816,
			"byteOffset":1224,
			"target":34962
		},
		{
			"buffer":0,
			"byteLength":1224,
			"byteOffset":2040,
			"target":34962
		},
		{
			"buffer":0,
			"byteLength":900,
			"byteOffset":3264,
			"target":34963
		}
	],
	"buffers":[
		{
			"byteLength":4164,
			"uri":"number_7.bin"
		}
	]
}
