{
	"asset":{
		"generator":"Khronos glTF Blender I/O v3.5.30",
		"version":"2.0"
	},
	"scene":0,
	"scenes":[
		{
			"name":"Scene",
			"nodes":[
				0
			]
		}
	],
	"nodes":[
		{
			"mesh":0,
			"name":"\u30c6\u30ad\u30b9\u30c8.002"
		}
	],
	"meshes":[
		{
			"name":"\u30c6\u30ad\u30b9\u30c8.023",
			"primitives":[
				{
					"attributes":{
						"POSITION":0,
						"TEXCOORD_0":1,
						"NORMAL":2
					},
					"indices":3
				}
			]
		}
	],
	"accessors":[
		{
			"bufferView":0,
			"componentType":5126,
			"count":2286,
			"max":[
				1.502766728401184,
				2.838691473007202,
				0.10000011324882507
			],
			"min":[
				-1.7112741470336914,
				-2.7376670837402344,
				-0.10000010579824448
			],
			"type":"VEC3"
		},
		{
			"bufferView":1,
			"componentType":5126,
			"count":2286,
			"type":"VEC2"
		},
		{
			"bufferView":2,
			"componentType":5126,
			"count":2286,
			"type":"VEC3"
		},
		{
			"bufferView":3,
			"componentType":5123,
			"count":11538,
			"type":"SCALAR"
		}
	],
	"bufferViews":[
		{
			"buffer":0,
			"byteLength":27432,
			"byteOffset":0,
			"target":34962
		},
		{
			"buffer":0,
			"byteLength":18288,
			"byteOffset":27432,
			"target":34962
		},
		{
			"buffer":0,
			"byteLength":27432,
			"byteOffset":45720,
			"target":34962
		},
		{
			"buffer":0,
			"byteLength":23076,
			"byteOffset":73152,
			"target":34963
		}
	],
	"buffers":[
		{
			"byteLength":96228,
			"uri":"number_2.bin"
		}
	]
}
