{
	"asset":{
		"generator":"Khronos glTF Blender I/O v3.5.30",
		"version":"2.0"
	},
	"scene":0,
	"scenes":[
		{
			"name":"Scene",
			"nodes":[
				0
			]
		}
	],
	"nodes":[
		{
			"mesh":0,
			"name":"\u30c6\u30ad\u30b9\u30c8"
		}
	],
	"materials":[
		{
			"doubleSided":true,
			"name":"\u30de\u30c6\u30ea\u30a2\u30eb.003",
			"pbrMetallicRoughness":{
				"baseColorFactor":[
					0,
					0.1437586396932602,
					0.8000000715255737,
					1
				],
				"metallicFactor":0,
				"roughnessFactor":0.5
			}
		}
	],
	"meshes":[
		{
			"name":"\u30c6\u30ad\u30b9\u30c8.003",
			"primitives":[
				{
					"attributes":{
						"POSITION":0,
						"TEXCOORD_0":1,
						"NORMAL":2
					},
					"indices":3,
					"material":0
				}
			]
		}
	],
	"accessors":[
		{
			"bufferView":0,
			"componentType":5126,
			"count":1014,
			"max":[
				0.8466603755950928,
				1.3401013612747192,
				0.050000064074993134
			],
			"min":[
				-0.7499509453773499,
				-1.2975656986236572,
				-0.05000004917383194
			],
			"type":"VEC3"
		},
		{
			"bufferView":1,
			"componentType":5126,
			"count":1014,
			"type":"VEC2"
		},
		{
			"bufferView":2,
			"componentType":5126,
			"count":1014,
			"type":"VEC3"
		},
		{
			"bufferView":3,
			"componentType":5123,
			"count":2976,
			"type":"SCALAR"
		}
	],
	"bufferViews":[
		{
			"buffer":0,
			"byteLength":12168,
			"byteOffset":0,
			"target":34962
		},
		{
			"buffer":0,
			"byteLength":8112,
			"byteOffset":12168,
			"target":34962
		},
		{
			"buffer":0,
			"byteLength":12168,
			"byteOffset":20280,
			"target":34962
		},
		{
			"buffer":0,
			"byteLength":5952,
			"byteOffset":32448,
			"target":34963
		}
	],
	"buffers":[
		{
			"byteLength":38400,
			"uri":"B.bin"
		}
	]
}
