# Blender 3.5.0
# www.blender.org
mtllib blockParticle_10.mtl
o 立方体_cell.011
v 0.145838 0.217304 0.556083
v -0.137029 -0.137644 0.549685
v -0.062108 -0.048317 0.563184
v 0.374850 0.226641 0.452543
v 0.268634 0.208721 0.563625
v 0.409712 0.036359 0.396053
v 0.380556 0.195466 0.453435
v -0.066375 -0.095482 0.566173
v 0.237876 -0.093056 0.582593
v 0.277073 0.137124 0.569042
v -0.402939 -0.262363 -0.375144
v -0.402939 -0.050334 -0.587173
v 0.266487 -0.262363 0.524536
v 0.408070 -0.262363 0.355342
v 0.384851 -0.262363 -0.375144
v 0.378162 -0.050334 -0.587173
v 0.378215 0.097678 -0.587173
v 0.315810 0.432987 -0.587173
v 0.313978 0.442680 -0.587173
v 0.304213 0.443186 -0.587173
v 0.258933 -0.262363 0.533482
v -0.245156 -0.262363 0.507245
v -0.093157 0.462981 -0.587173
v -0.273748 0.235595 -0.587173
v -0.476396 -0.188906 -0.232978
v -0.506483 -0.158819 -0.375144
v -0.473893 -0.050334 -0.516219
v -0.456541 -0.020190 -0.533571
v -0.448114 -0.217188 -0.099641
v -0.402939 -0.262363 0.112592
v -0.252501 -0.262363 0.506783
v -0.402939 0.072788 -0.587173
v 0.378162 -0.050334 -0.587173
v 0.378215 0.097678 -0.587173
v 0.315810 0.432987 -0.587173
v 0.313978 0.442680 -0.587173
v -0.093157 0.462981 -0.587173
v -0.273748 0.235595 -0.587173
v -0.476396 -0.188906 -0.232978
v -0.506483 -0.158819 -0.375144
v -0.473893 -0.050334 -0.516219
v -0.456541 -0.020190 -0.533571
v -0.448114 -0.217188 -0.099641
v 0.304213 0.443186 -0.587173
v -0.402939 0.072788 -0.587173
v -0.402939 -0.262363 0.112592
v -0.252501 -0.262363 0.506783
v 0.258933 -0.262363 0.533482
v -0.245156 -0.262363 0.507245
v 0.266487 -0.262363 0.524536
v 0.408070 -0.262363 0.355342
v 0.384851 -0.262363 -0.375144
vn 0.9837 0.1801 0.0005
vn 0.7643 -0.0903 0.6386
vn -0.0000 -0.3853 -0.9228
vn -0.3416 -0.8756 -0.3416
vn -0.3416 -0.3416 -0.8756
vn -0.0498 -0.2847 0.9573
vn 0.9829 0.1829 -0.0201
vn 0.9824 0.1856 -0.0189
vn 0.0507 0.9784 0.2003
vn 0.0553 0.9761 0.2104
vn 0.7027 0.1485 0.6958
vn 0.7032 0.1357 0.6979
vn 0.7608 -0.0917 0.6425
vn -0.0549 0.0689 0.9961
vn 0.9995 -0.0011 -0.0320
vn 0.0487 0.9786 0.2001
vn -0.0562 0.0706 0.9959
vn -0.7506 0.5961 0.2850
vn -0.7509 0.5955 0.2856
vn -0.7521 0.5933 0.2870
vn -0.7458 0.5746 0.3369
vn -0.2745 0.0855 0.9578
vn -0.0603 -0.2743 0.9597
vn -0.7513 0.5962 0.2829
vn -0.0000 -1.0000 -0.0000
vn -0.5774 -0.5774 -0.5774
vn -0.0543 0.0679 0.9962
vn -0.7071 -0.0000 -0.7071
vn -0.1615 -0.0000 -0.9869
vn -0.7071 -0.7071 -0.0000
vn 0.7638 -0.0914 0.6389
vn -0.0000 -0.0000 -1.0000
vn -0.0000 -0.9266 -0.3761
vn -0.0494 -0.2839 0.9576
vn 0.9995 -0.0002 -0.0318
vn 0.9995 -0.0004 -0.0320
vn -0.7517 0.5940 0.2864
vn -0.0543 0.0680 0.9962
vn -0.6372 -0.4337 -0.6372
vn -0.6599 -0.6599 -0.3592
vn -0.0691 -0.9976 -0.0000
vn 0.7637 -0.0913 0.6391
vn -0.0000 -0.0006 -1.0000
vt 0.000000 0.000000
vt 1.000000 0.000000
vt 1.000000 1.000000
vt 1.000000 0.000000
vt 0.000000 0.000000
vt 1.000000 0.000000
vt 1.000000 1.000000
vt 0.000000 0.000000
vt 0.000000 0.000000
vt 1.000000 0.000000
vt 1.000000 1.000000
vt 0.000000 0.000000
vt 1.000000 0.000000
vt 1.000000 1.000000
vt 0.000000 0.000000
vt 1.000000 0.000000
vt 1.000000 1.000000
vt 1.000000 1.000000
vt 0.000000 0.000000
vt 1.000000 0.000000
vt 0.000000 0.000000
vt 1.000000 0.000000
vt 1.000000 0.000000
vt 1.000000 1.000000
vt 0.000000 0.000000
vt 0.369398 0.408560
vt 0.330237 0.000000
vt 0.738796 0.330236
vt 0.766487 0.369398
vt 0.408560 0.408560
vt 0.164067 0.087428
vt 0.195317 0.105919
vt 0.884583 0.143753
vt 0.641971 0.048428
vt 0.435897 0.552838
vt 0.497829 0.541312
vt 0.499619 0.540974
vt 0.499712 0.539170
vt 0.162414 0.086442
vt 0.167260 0.020607
vt 0.503368 0.465776
vt 0.461370 0.432421
vt 0.757983 0.303979
vt 0.765842 0.330236
vt 0.775754 0.356293
vt 0.408560 0.395455
vt 0.414127 0.398659
vt 0.750596 0.279351
vt 0.240152 0.000000
vt 0.738796 0.240152
vt 0.167953 0.019454
vt 0.431300 0.408560
vt 0.408560 0.552828
vt 0.048245 0.048245
vt 1.000000 0.048245
vt 1.000000 0.047979
vt 0.047980 0.047980
vt 0.045491 0.000000
vt 0.045491 0.045491
vt 0.041820 0.000000
vt 0.041820 0.041820
vt 1.000000 0.697009
vt 0.302991 0.000000
vt 1.000000 0.232782
vt 0.232782 0.232782
vt 0.881381 0.113546
vt 0.673359 0.009685
vt 1.000000 0.371523
vt 0.628477 0.000000
vt 0.359943 0.000000
vt 0.359943 0.359943
vt 1.000000 0.958457
vt 0.041542 0.000000
vt 0.769567 0.466752
vt 0.593655 0.189804
vt 1.000000 0.190890
vt 0.288207 0.000000
vt 0.711793 0.000000
vt 0.771758 0.771758
vt 0.771758 0.000000
vt 0.767692 0.000000
vt 1.000000 0.232308
vt 1.000000 0.111379
vt 0.888621 0.000000
vt 0.142584 0.142584
vt 1.000000 0.142584
vt 0.369398 0.554064
vt 0.330236 0.102887
s 1
usemtl マテリアル.001
f 33/53/3 11/26/4 12/30/5
s 0
f 13/31/25 22/40/25 30/49/25
f 11/28/26 27/45/26 12/29/26
s 1
f 12/30/5 28/47/28 32/52/29
f 11/28/4 29/48/30 25/43/30
s 0
f 18/36/32 32/52/32 23/41/32
s 1
f 33/53/3 52/87/33 11/26/4
s 0
f 30/49/25 11/27/25 52/88/25
f 52/88/25 14/32/25 13/31/25
f 13/31/25 21/39/25 22/40/25
f 22/40/25 31/51/25 30/49/25
f 30/49/25 52/88/25 13/31/25
f 11/28/26 26/44/26 27/45/26
s 1
f 12/30/5 27/46/39 28/47/28
f 25/43/30 26/44/40 11/28/4
f 11/28/4 30/50/41 29/48/30
s 0
f 20/38/32 19/37/32 18/36/32
f 18/36/32 17/35/32 33/53/32
f 33/53/32 12/30/32 32/52/32
f 32/52/43 24/42/43 23/41/43
f 23/41/32 20/38/32 18/36/32
f 18/36/32 33/53/32 32/52/32
usemtl Inner
f 4/9/1 7/16/1 6/14/1
f 7/15/2 10/23/2 6/14/2
f 48/79/6 8/19/6 49/81/6
f 35/56/7 6/14/7 34/54/7
f 4/10/8 35/57/8 36/58/8
f 44/73/9 4/11/9 36/59/9
f 1/1/10 5/13/10 4/11/10
f 5/12/11 7/16/11 4/11/11
f 5/12/12 10/23/12 7/17/12
f 9/21/13 50/83/13 10/24/13
f 5/12/14 3/6/14 10/24/14
f 16/34/15 6/14/15 51/85/15
f 44/72/16 37/60/16 1/2/16
f 3/8/17 5/13/17 1/3/17
f 40/66/18 1/3/18 38/63/18
f 1/3/19 43/70/19 3/6/19
f 3/7/20 46/75/20 47/76/20
f 47/77/21 2/4/21 3/7/21
f 2/5/22 8/20/22 3/7/22
f 2/5/23 49/82/23 8/18/23
f 42/68/24 38/62/24 45/74/24
f 3/8/27 9/22/27 10/24/27
f 50/84/31 6/14/31 10/25/31
f 48/79/34 9/21/34 8/19/34
f 4/10/8 6/14/8 35/57/8
f 44/73/9 1/2/9 4/11/9
f 9/21/13 48/80/13 50/83/13
f 51/85/35 15/33/35 16/34/35
f 16/34/36 34/55/36 6/14/36
f 42/69/18 41/67/18 40/66/18
f 40/66/18 39/64/18 1/3/18
f 1/3/18 37/61/18 38/63/18
f 38/63/18 42/69/18 40/66/18
f 1/3/19 39/65/19 43/70/19
f 3/7/37 43/71/37 46/75/37
f 2/5/23 47/78/23 49/82/23
f 3/8/38 8/20/38 9/22/38
f 50/84/42 51/86/42 6/14/42
