# Blender 3.5.0
# www.blender.org
mtllib blockParticle_16.mtl
o 立方体_cell.018
v -0.105009 -0.201768 -0.484738
v -0.128002 0.293022 -0.408428
v -0.099617 -0.153642 -0.487725
v -0.088809 0.170602 -0.478354
v 0.357625 -0.364794 0.072390
v 0.197974 -0.199061 -0.467788
v 0.107653 0.271479 -0.398865
v 0.353691 -0.206666 -0.023826
v 0.230199 0.116634 -0.479807
v 0.237432 0.029617 -0.482039
v 0.229893 0.103368 -0.487572
v 0.106772 0.110391 -0.494910
v -0.441924 -0.369085 0.148137
v -0.441924 -0.157056 0.360166
v -0.575388 -0.157056 0.226701
v -0.529950 -0.281059 0.148137
v -0.443776 -0.367233 0.011389
v -0.441924 -0.369085 0.017414
v 0.359959 -0.369085 0.099045
v 0.358713 -0.369085 0.085929
v 0.331826 -0.369085 0.081978
v 0.364526 -0.369085 0.148137
v 0.391459 -0.157056 0.360166
v 0.400089 0.096793 0.360166
v -0.441924 0.568141 0.360166
v -0.527635 0.550340 0.274455
v -0.552259 0.545129 0.249831
v -0.552905 0.527579 0.249184
v 0.401261 0.132480 0.360166
v 0.397600 0.172190 0.360166
v 0.388206 0.267639 0.360166
v 0.156167 0.504495 0.360166
v 0.359959 -0.369085 0.099045
v 0.358713 -0.369085 0.085929
v -0.441924 0.568141 0.360166
v 0.156167 0.504495 0.360166
v -0.575388 -0.157056 0.226701
v -0.529950 -0.281059 0.148137
v -0.443776 -0.367233 0.011389
v -0.441924 -0.369085 0.017414
v 0.331826 -0.369085 0.081978
v 0.397600 0.172190 0.360166
v 0.388206 0.267639 0.360166
v 0.364526 -0.369085 0.148137
v 0.391459 -0.157056 0.360166
v 0.401261 0.132480 0.360166
v 0.400089 0.096793 0.360166
v -0.527635 0.550340 0.274455
v -0.552905 0.527579 0.249184
v -0.552259 0.545129 0.249831
vn 0.0252 -0.9533 -0.3009
vn 0.9945 -0.0457 -0.0944
vn 0.0448 -0.9513 -0.3051
vn 0.9951 -0.0338 -0.0926
vn 0.1010 0.9492 -0.2981
vn 0.0989 0.9489 -0.2997
vn -0.8304 0.0510 -0.5548
vn -0.7555 0.0441 -0.6537
vn 0.0518 -0.0676 -0.9964
vn 0.0554 -0.0700 -0.9960
vn 0.0546 -0.0692 -0.9961
vn 0.0564 -0.0718 -0.9958
vn 0.9950 -0.0327 -0.0944
vn 0.9268 -0.1804 -0.3293
vn 0.9289 -0.1753 -0.3261
vn 0.9756 0.0899 -0.2003
vn 0.9751 0.0950 -0.2006
vn 0.9750 0.0960 -0.2006
vn 0.6913 0.6773 -0.2518
vn 0.6902 0.6782 -0.2523
vn 0.0816 0.5139 -0.8540
vn 0.0828 0.5123 -0.8548
vn -0.0747 0.0313 -0.9967
vn 0.0810 0.5021 -0.8610
vn 0.0798 0.4969 -0.8641
vn 0.9753 0.0844 -0.2039
vn -0.0000 -0.0000 1.0000
vn -0.5774 -0.5774 0.5774
vn -0.3774 -0.0000 0.9260
vn -0.7071 -0.0000 0.7071
vn -0.6696 -0.3215 0.6696
vn -0.8320 0.0455 -0.5529
vn -0.6329 -0.6329 0.4461
vn -0.4919 -0.8707 -0.0000
vn -0.3416 -0.8756 0.3416
vn -0.0000 -1.0000 -0.0000
vn -0.0000 -0.9144 0.4048
vn -0.3416 -0.3416 0.8756
vn 0.0253 -0.9534 -0.3007
vn 0.0251 -0.9533 -0.3009
vn 0.1010 0.9493 -0.2979
vn -0.7076 0.0005 0.7066
vn -0.7069 -0.0000 0.7073
vn -0.8320 0.0455 -0.5530
vn -0.8319 0.0457 -0.5531
vn -0.7071 -0.7071 -0.0000
vn -0.0030 -1.0000 -0.0000
vn -0.0000 -0.3673 0.9301
vt 1.000000 1.000000
vt 0.000000 0.000000
vt 1.000000 0.000000
vt 1.000000 0.000000
vt 0.000000 0.000000
vt 0.000000 0.000000
vt 1.000000 0.000000
vt 1.000000 0.000000
vt 1.000000 1.000000
vt 0.000000 0.000000
vt 1.000000 1.000000
vt 1.000000 0.000000
vt 0.000000 0.000000
vt 1.000000 0.000000
vt 0.000000 0.000000
vt 0.000000 0.000000
vt 1.000000 1.000000
vt 1.000000 0.000000
vt 1.000000 0.000000
vt 0.000000 0.000000
vt 1.000000 0.000000
vt 0.000000 0.000000
vt 0.000000 0.000000
vt 1.000000 0.000000
vt 0.000000 0.000000
vt 1.000000 1.000000
vt 1.000000 0.000000
vt 0.000000 0.000000
vt 1.000000 0.000000
vt 0.369398 0.330236
vt 0.738796 0.039162
vt 0.039162 0.000000
vt 0.766488 0.000000
vt 0.408560 0.330236
vt 0.745171 0.743202
vt 0.880910 0.809107
vt 0.739280 0.064419
vt 0.738796 0.063306
vt 0.063306 0.000000
vt 0.048229 0.104727
vt 0.050651 0.104565
vt 0.051381 0.101053
vt 0.039162 0.105324
vt 0.369398 0.181286
vt 0.408560 0.176311
vt 0.455445 0.174718
vt 0.542503 0.330236
vt 0.539215 0.346067
vt 0.538253 0.350615
vt 0.535011 0.350735
vt 0.462037 0.174501
vt 0.469501 0.175190
vt 0.487000 0.176912
vt 0.530770 0.219792
vt 0.079012 0.000000
vt 0.079012 0.079012
vt 0.078480 0.078480
vt 1.000000 0.078479
vt 0.782350 0.734035
vt 0.999047 0.000000
vt 0.999047 0.999047
vt 0.001054 0.000000
vt 0.783918 0.024651
vt 0.408560 0.354887
vt 0.761789 0.039162
vt 0.762672 0.762672
vt 1.000000 0.762671
vt 0.771188 0.765068
vt 1.000000 0.771398
vt 0.771398 0.771398
vt 0.944818 0.944818
vt 0.944336 0.944336
vt 1.000000 0.944818
vt 0.943931 0.000000
vt 0.943931 0.943931
vt 0.224535 0.211259
vt 0.853124 0.426339
vt 0.885786 0.885786
vt 0.885786 0.000000
vt 0.853205 0.000000
vt 1.000000 0.146795
vt 1.000000 0.832540
vt 0.832540 0.832540
vt 1.000000 0.819076
vt 0.819076 0.819076
vt 1.000000 0.804406
vt 0.804406 0.804406
s 0
usemtl マテリアル.001
f 29/51/27 31/53/27 25/47/27
f 38/65/28 14/33/28 37/63/28
s 1
f 25/47/29 27/49/30 37/64/31
f 38/65/33 18/38/34 13/31/35
s 0
f 22/43/36 18/39/36 20/41/36
s 1
f 22/44/37 14/34/38 13/30/35
s 0
f 25/47/27 14/34/27 23/45/27
f 23/45/27 24/46/27 29/51/27
f 29/51/27 30/52/27 31/53/27
f 31/53/27 32/54/27 25/47/27
f 25/47/27 23/45/27 29/51/27
f 38/65/28 13/31/28 14/33/28
s 1
f 37/64/31 14/34/38 25/47/29
f 25/47/29 26/48/42 27/49/30
f 27/49/30 28/50/43 37/64/31
f 38/65/33 17/37/46 18/38/34
s 0
f 20/41/47 19/40/47 22/43/47
f 22/43/36 13/32/36 18/39/36
f 18/39/36 21/42/36 20/41/36
s 1
f 22/44/37 23/45/48 14/34/38
s 0
usemtl Inner
f 6/14/1 40/68/1 39/66/1
f 5/13/2 33/55/2 34/57/2
f 41/70/3 5/12/3 34/58/3
f 33/56/4 47/80/4 45/77/4
f 36/62/5 48/82/5 35/59/5
f 2/4/6 48/83/6 7/16/6
f 49/84/7 2/5/7 4/8/7
f 4/10/8 3/7/8 1/1/8
f 3/6/9 12/29/9 1/1/9
f 12/28/10 11/27/10 1/1/10
f 11/25/11 10/24/11 1/1/11
f 10/23/12 6/14/12 1/1/12
f 8/20/13 47/81/13 5/11/13
f 6/15/14 10/24/14 5/11/14
f 10/23/15 8/19/15 5/11/15
f 8/20/16 42/73/16 46/78/16
f 9/21/17 42/71/17 11/25/17
f 9/22/18 43/74/18 42/72/18
f 9/22/19 36/60/19 43/75/19
f 7/18/20 36/61/20 9/22/20
f 4/10/21 2/4/21 7/17/21
f 9/22/22 4/8/22 7/17/22
f 12/28/23 3/7/23 4/9/23
f 9/22/24 11/27/24 4/9/24
f 11/25/25 12/29/25 4/9/25
f 8/20/26 10/24/26 11/26/26
f 49/85/32 1/3/32 16/36/32
f 39/66/39 1/2/39 6/14/39
f 6/14/40 41/69/40 40/68/40
f 41/70/3 6/15/3 5/12/3
f 45/77/4 44/76/4 33/56/4
f 33/56/4 5/13/4 47/80/4
f 36/62/41 7/18/41 48/82/41
f 2/4/6 50/86/6 48/83/6
f 49/84/7 50/87/7 2/5/7
f 8/20/13 46/79/13 47/81/13
f 8/20/16 11/27/16 42/73/16
f 16/36/44 15/35/44 49/85/44
f 49/85/45 4/10/45 1/3/45
f 1/3/32 39/67/32 16/36/32
