# Blender 3.5.0
# www.blender.org
mtllib blockParticle_5.mtl
o 立方体_cell.006
v -0.540923 -0.391759 0.069948
v -0.553273 -0.096455 -0.504415
v -0.656668 -0.154313 -0.388715
v -0.524956 -0.013727 -0.509683
v -0.664669 -0.069236 -0.386491
v -0.559340 -0.066008 -0.504677
v -0.664709 -0.082827 -0.394208
v 0.449617 -0.343095 0.242043
v 0.279290 -0.205052 0.412371
v 0.237588 -0.161311 0.454072
v -0.493359 -0.052885 0.454072
v 0.348788 -0.443925 0.157455
v 0.411530 -0.343095 0.280131
v 0.414950 -0.377763 0.242043
v 0.449617 0.475394 -0.303705
v 0.449617 0.369073 0.242043
v 0.237588 0.340071 0.454072
v 0.052300 0.350823 0.454072
v 0.449617 0.455966 -0.524890
v 0.046688 0.348124 0.454072
v -0.012431 0.319610 0.454072
v -0.505713 0.081122 0.454072
v 0.449617 -0.343095 -0.040298
v 0.449617 0.444072 -0.639671
v 0.449617 -0.039709 -0.627787
v 0.279290 -0.205052 0.412371
v 0.237588 -0.161311 0.454072
v 0.411530 -0.343095 0.280131
v 0.414950 -0.377763 0.242043
v 0.449617 0.475394 -0.303705
v 0.449617 0.369073 0.242043
v 0.449617 -0.039709 -0.627787
v 0.449617 -0.343095 -0.040298
v 0.237588 0.340071 0.454072
v 0.052300 0.350823 0.454072
v 0.449617 0.455966 -0.524890
v 0.046688 0.348124 0.454072
v 0.449617 0.444072 -0.639671
v -0.012431 0.319610 0.454072
v -0.505713 0.081122 0.454072
v 0.348788 -0.443925 0.157455
v -0.493359 -0.052885 0.454072
vn -0.1096 -0.7386 0.6652
vn -0.1087 -0.7400 0.6638
vn 0.0569 0.9800 0.1909
vn -0.4321 0.8983 -0.0789
vn -0.4321 0.8983 -0.0804
vn -0.4339 0.8975 -0.0785
vn -0.9758 -0.0969 0.1961
vn -0.0137 -0.8894 -0.4570
vn 0.3871 -0.0000 0.9220
vn 0.7071 -0.0000 0.7071
vn 0.8756 -0.3416 0.3416
vn -0.4330 0.8972 -0.0868
vn -0.1205 -0.0244 -0.9924
vn -0.1269 -0.0115 -0.9919
vn -0.9797 -0.0967 0.1754
vn -0.6907 0.3964 -0.6048
vn -0.7034 0.3525 -0.6172
vn -0.7004 -0.1456 -0.6987
vn -0.7070 -0.1329 -0.6946
vn -0.1202 -0.0325 -0.9922
vn -0.0000 -0.0000 1.0000
vn -0.0074 -0.8885 -0.4588
vn 0.5773 -0.5774 0.5774
vn 0.7071 -0.7071 -0.0000
vn 0.9900 -0.1408 -0.0000
vn -0.9755 -0.0903 0.2006
vn 1.0000 -0.0000 -0.0000
vn -0.4331 0.8979 -0.0793
vn -0.4590 0.8837 -0.0916
vn 0.9374 -0.0000 0.3483
vn 0.4636 -0.0000 0.8861
vn 0.6972 -0.1669 0.6972
vn -0.0000 0.0009 1.0000
vn -0.0072 -0.8894 -0.4571
vn -0.0059 -0.8894 -0.4571
vn 0.6939 -0.6939 0.1921
vn -0.9756 -0.0899 0.2002
vt 0.000000 0.000000
vt 1.000000 1.000000
vt 1.000000 0.000000
vt 1.000000 0.000000
vt 1.000000 1.000000
vt 0.000000 0.000000
vt 0.000000 0.000000
vt 1.000000 0.000000
vt 1.000000 1.000000
vt 1.000000 0.000000
vt 0.000000 0.000000
vt 1.000000 1.000000
vt 0.000000 0.000000
vt 1.000000 0.000000
vt 1.000000 0.000000
vt 0.000000 0.000000
vt 1.000000 0.000000
vt 0.000000 0.000000
vt 0.408560 0.000000
vt 0.039162 0.261204
vt 0.434056 0.031459
vt 0.442135 0.039162
vt 0.462161 0.174167
vt 0.054785 0.234867
vt 0.032127 0.256230
vt 0.408560 0.007035
vt 0.039162 0.252149
vt 0.139961 0.368100
vt 0.540097 0.000000
vt 0.039162 0.354214
vt 0.608951 0.553806
vt 0.536726 0.073384
vt 0.180813 0.365563
vt 0.536227 0.074421
vt 0.530961 0.085340
vt 0.486912 0.176449
vt 0.091310 0.261204
vt 0.201188 0.364290
vt 0.199818 0.300827
vt 1.000000 0.788442
vt 0.788442 0.788442
vt 0.856462 0.740936
vt 0.915160 0.350934
vt 0.918362 0.235196
vt 1.000000 0.105769
vt 0.105769 0.105769
vt 0.396091 0.106150
vt 0.046933 0.000000
vt 1.000000 0.047204
vt 0.952796 0.000000
vt 0.742380 0.048303
vt 0.534740 0.039162
vt 0.944875 0.944875
vt 1.000000 0.944875
vt 1.000000 0.105607
vt 0.105607 0.105607
vt 1.000000 0.956719
vt 0.956719 0.956719
vt 0.951203 0.951203
vt 1.000000 0.952788
vt 0.952788 0.952788
vt 0.042941 0.000000
vt 0.944086 0.944086
vt 1.000000 0.944086
vt 0.943905 0.000000
vt 0.056095 0.000000
vt 0.854642 0.000000
vt 1.000000 0.145358
vt 0.115460 0.000000
vt 1.000000 0.884540
s 1
usemtl マテリアル.001
f 34/52/9 9/21/10 8/19/11
s 0
f 22/36/21 10/22/21 18/32/21
f 8/20/23 13/25/23 14/27/23
s 1
f 8/20/11 12/24/24 23/37/25
s 0
f 15/28/27 8/20/27 25/39/27
s 1
f 8/19/11 16/29/30 34/52/9
f 34/52/9 10/22/31 9/21/10
f 9/21/10 13/26/32 8/19/11
s 0
f 20/34/33 21/35/33 22/36/33
f 22/36/21 11/23/21 10/22/21
f 10/22/21 34/52/21 18/32/21
f 18/32/21 20/34/21 22/36/21
s 1
f 8/20/11 14/27/36 12/24/24
s 0
f 24/38/27 19/33/27 15/28/27
f 15/28/27 16/30/27 8/20/27
f 8/20/27 23/37/27 25/39/27
f 25/39/27 24/38/27 15/28/27
usemtl Inner
f 1/3/1 27/42/1 42/69/1
f 26/41/2 41/67/2 29/44/2
f 31/47/3 35/54/3 17/31/3
f 30/46/4 37/57/4 35/53/4
f 37/58/5 38/62/5 5/14/5
f 39/63/6 5/13/6 40/65/6
f 5/13/7 3/8/7 1/2/7
f 3/7/8 2/4/8 1/2/8
f 4/11/12 5/14/12 38/59/12
f 6/15/13 38/60/13 32/48/13
f 6/16/14 4/10/14 38/61/14
f 7/18/15 3/8/15 5/12/15
f 4/11/16 6/15/16 5/12/16
f 6/16/17 7/17/17 5/12/17
f 6/16/18 2/4/18 3/9/18
f 7/18/19 6/15/19 3/9/19
f 2/5/20 6/16/20 32/49/20
f 1/2/22 32/50/22 33/51/22
f 1/3/26 40/66/26 5/13/26
f 1/3/1 26/40/1 27/42/1
f 29/44/2 28/43/2 26/41/2
f 26/41/2 1/1/2 41/67/2
f 31/47/3 30/45/3 35/54/3
f 30/46/4 36/55/4 37/57/4
f 5/14/28 39/64/28 37/58/28
f 37/58/29 36/56/29 38/62/29
f 33/51/34 41/68/34 1/2/34
f 1/2/35 2/6/35 32/50/35
f 1/3/37 42/70/37 40/66/37
