# Blender 3.5.0
# www.blender.org
mtllib blockParticle_0.mtl
o 立方体_cell
v 0.359769 -0.152590 -0.192882
v -0.401757 0.145188 0.577952
v -0.433288 0.188849 -0.404911
v -0.433259 0.206504 -0.404911
v -0.407620 -0.152590 0.411122
v -0.403583 -0.152590 0.536666
v 0.388977 -0.123382 0.400927
v 0.359769 -0.152590 0.401999
v 0.494703 -0.017655 0.396386
v 0.500375 -0.011984 0.275986
v -0.371361 0.194556 -0.404911
v -0.433247 0.059439 -0.404911
v -0.426538 -0.152590 -0.192882
v 0.521985 0.009626 -0.192882
v 0.325306 0.059439 -0.404911
v 0.359769 0.052366 -0.397838
v -0.407620 -0.152590 0.411122
v -0.403583 -0.152590 0.536666
v 0.388977 -0.123382 0.400927
v 0.359769 -0.152590 0.401999
v 0.494703 -0.017655 0.396386
v -0.426538 -0.152590 -0.192882
v 0.500375 -0.011984 0.275986
v 0.521985 0.009626 -0.192882
v -0.371361 0.194556 -0.404911
v 0.325306 0.059439 -0.404911
v -0.433288 0.188849 -0.404911
v -0.433247 0.059439 -0.404911
v -0.433259 0.206504 -0.404911
v 0.359769 0.052366 -0.397838
vn -0.9995 0.0017 0.0321
vn 0.1721 -0.1363 0.9756
vn 0.1737 -0.1318 0.9759
vn 0.1892 0.9804 0.0551
vn -0.9995 -0.0003 0.0313
vn 0.1901 0.9803 0.0539
vn -0.0000 -0.0000 -1.0000
vn 0.5774 -0.5774 -0.5774
vn -0.0000 -0.6744 -0.7383
vn 0.3416 -0.8756 -0.3416
vn -0.0000 -0.9212 -0.3892
vn -0.0000 -1.0000 -0.0000
vn 0.7071 -0.7071 -0.0000
vn -0.0000 -0.3799 -0.9250
vn 0.1889 -0.6944 -0.6944
vn 0.3592 -0.9332 -0.0000
vn 0.6800 -0.6800 -0.2742
vt 0.369398 0.699635
vt 0.330236 0.205821
vt 1.000000 1.000000
vt 0.432461 0.553158
vt 0.435722 0.553163
vt 0.218678 0.105599
vt 0.195490 0.106126
vt 0.220560 0.213450
vt 0.220363 0.205821
vt 0.221399 0.241066
vt 0.243637 0.242548
vt 0.433515 0.564596
vt 0.408560 0.553165
vt 0.369398 0.554404
vt 0.330236 0.103128
vt 0.330236 0.248193
vt 0.408560 0.693269
vt 0.368092 0.232589
vt 0.407253 0.699635
vt 0.879445 0.000000
vt 1.000000 0.120555
vt 1.000000 0.142905
vt 0.142905 0.142905
vt 1.000000 0.227621
vt 0.227621 0.227621
vt 0.887612 0.143529
vt 1.000000 0.124012
vt 0.124012 0.124012
vt 0.387615 0.121504
vt 0.114759 0.000000
vt 0.114759 0.114759
vt 0.682914 0.094447
vt 0.939906 0.000000
vt 0.939905 0.939905
vt 0.939857 0.280632
vt 0.050381 0.000000
vt 1.000000 0.949619
vt 0.686421 0.635879
vt 0.048030 0.048030
vt 1.000000 0.048030
vt 0.931283 0.248017
s 0
usemtl マテリアル.001
f 3/4/7 11/12/7 15/17/7
f 16/18/8 14/16/8 1/2/8
s 1
f 15/17/9 1/1/10 13/14/11
s 0
f 13/15/12 8/9/12 6/7/12
s 1
f 7/8/13 1/2/10 10/11/13
s 0
f 15/17/7 12/13/7 3/4/7
f 3/4/7 4/5/7 11/12/7
s 1
f 13/14/11 12/13/14 15/17/9
f 15/17/9 16/19/15 1/1/10
s 0
f 6/7/12 5/6/12 13/15/12
f 13/15/12 1/2/12 8/9/12
s 1
f 10/11/13 9/10/13 7/8/13
f 7/8/13 8/9/16 1/2/10
f 1/2/10 14/16/17 10/11/13
s 0
usemtl Inner
f 2/3/1 27/36/1 17/20/1
f 2/3/2 20/26/2 19/24/2
f 19/25/3 21/27/3 2/3/3
f 21/28/4 25/33/4 29/40/4
f 22/29/5 27/37/5 28/38/5
f 25/34/6 24/32/6 30/41/6
f 17/20/1 18/22/1 2/3/1
f 2/3/1 29/39/1 27/36/1
f 2/3/2 18/23/2 20/26/2
f 29/40/4 2/3/4 21/28/4
f 21/28/4 23/30/4 25/33/4
f 22/29/5 17/21/5 27/37/5
f 30/41/6 26/35/6 25/34/6
f 25/34/6 23/31/6 24/32/6
