{
	"asset":{
		"generator":"Khronos glTF Blender I/O v3.5.30",
		"version":"2.0"
	},
	"scene":0,
	"scenes":[
		{
			"name":"Scene",
			"nodes":[
				0
			]
		}
	],
	"nodes":[
		{
			"mesh":0,
			"name":"\u7acb\u65b9\u4f53_cell.007"
		}
	],
	"materials":[
		{
			"doubleSided":true,
			"name":"\u30de\u30c6\u30ea\u30a2\u30eb.001",
			"pbrMetallicRoughness":{
				"baseColorTexture":{
					"index":0
				},
				"metallicFactor":0,
				"roughnessFactor":0.5
			}
		},
		{
			"doubleSided":true,
			"name":"Inner",
			"pbrMetallicRoughness":{
				"baseColorTexture":{
					"index":1
				},
				"metallicFactor":0,
				"roughnessFactor":0.5
			}
		}
	],
	"meshes":[
		{
			"name":"\u7acb\u65b9\u4f53_cell.027",
			"primitives":[
				{
					"attributes":{
						"POSITION":0,
						"TEXCOORD_0":1,
						"NORMAL":2
					},
					"indices":3,
					"material":0
				},
				{
					"attributes":{
						"POSITION":4,
						"TEXCOORD_0":5,
						"NORMAL":6
					},
					"indices":7,
					"material":1
				}
			]
		}
	],
	"textures":[
		{
			"sampler":0,
			"source":0
		},
		{
			"sampler":0,
			"source":1
		}
	],
	"images":[
		{
			"mimeType":"image/png",
			"name":"block",
			"uri":"block.png"
		},
		{
			"mimeType":"image/png",
			"name":"black2x2",
			"uri":"black2x2.png"
		}
	],
	"accessors":[
		{
			"bufferView":0,
			"componentType":5126,
			"count":28,
			"max":[
				0.38001102209091187,
				0.340830534696579,
				0.13564689457416534
			],
			"min":[
				-0.5676418542861938,
				-0.15839055180549622,
				-0.159223273396492
			],
			"type":"VEC3"
		},
		{
			"bufferView":1,
			"componentType":5126,
			"count":28,
			"type":"VEC2"
		},
		{
			"bufferView":2,
			"componentType":5126,
			"count":28,
			"type":"VEC3"
		},
		{
			"bufferView":3,
			"componentType":5123,
			"count":51,
			"type":"SCALAR"
		},
		{
			"bufferView":4,
			"componentType":5126,
			"count":29,
			"max":[
				0.38469135761260986,
				0.340830534696579,
				0.22400490939617157
			],
			"min":[
				-0.5676418542861938,
				-0.15839055180549622,
				-0.159223273396492
			],
			"type":"VEC3"
		},
		{
			"bufferView":5,
			"componentType":5126,
			"count":29,
			"type":"VEC2"
		},
		{
			"bufferView":6,
			"componentType":5126,
			"count":29,
			"type":"VEC3"
		},
		{
			"bufferView":7,
			"componentType":5123,
			"count":45,
			"type":"SCALAR"
		}
	],
	"bufferViews":[
		{
			"buffer":0,
			"byteLength":336,
			"byteOffset":0,
			"target":34962
		},
		{
			"buffer":0,
			"byteLength":224,
			"byteOffset":336,
			"target":34962
		},
		{
			"buffer":0,
			"byteLength":336,
			"byteOffset":560,
			"target":34962
		},
		{
			"buffer":0,
			"byteLength":102,
			"byteOffset":896,
			"target":34963
		},
		{
			"buffer":0,
			"byteLength":348,
			"byteOffset":1000,
			"target":34962
		},
		{
			"buffer":0,
			"byteLength":232,
			"byteOffset":1348,
			"target":34962
		},
		{
			"buffer":0,
			"byteLength":348,
			"byteOffset":1580,
			"target":34962
		},
		{
			"buffer":0,
			"byteLength":90,
			"byteOffset":1928,
			"target":34963
		}
	],
	"samplers":[
		{
			"magFilter":9729,
			"minFilter":9987
		}
	],
	"buffers":[
		{
			"byteLength":2020,
			"uri":"blockParticle_6.bin"
		}
	]
}
