# Blender 3.5.0
# www.blender.org
mtllib blockParticle_19.mtl
o 立方体_cell.021
v 0.372968 0.177917 -0.177028
v -0.332340 0.309872 -0.085735
v -0.332340 0.097843 0.126294
v -0.222419 -0.530711 0.126294
v -0.332340 -0.466885 0.126294
v -0.453854 0.023326 0.004781
v -0.472304 0.097843 -0.013669
v 0.265204 -0.811265 0.126294
v 0.292053 -0.669537 0.126294
v 0.428330 0.207588 0.016549
v 0.435979 0.097843 0.126294
v 0.304863 0.309872 -0.203381
v -0.359523 0.282690 -0.085735
v -0.332340 0.309872 -0.098088
v 0.346624 0.309872 -0.085735
v 0.391441 0.253864 -0.029727
v -0.222419 -0.530711 0.126294
v -0.332340 -0.466885 0.126294
v -0.453854 0.023326 0.004781
v -0.472304 0.097843 -0.013669
v 0.428330 0.207588 0.016549
v 0.435979 0.097843 0.126294
v 0.304863 0.309872 -0.203381
v -0.332340 0.309872 -0.098088
v -0.359523 0.282690 -0.085735
v 0.346624 0.309872 -0.085735
v 0.391441 0.253864 -0.029727
v 0.292053 -0.669537 0.126294
v 0.265204 -0.811265 0.126294
vn -0.1594 -0.2746 -0.9483
vn -0.0000 0.7071 0.7071
vn -0.0000 0.8779 0.4788
vn -0.3416 0.3416 0.8756
vn 0.9514 -0.1802 -0.2497
vn 0.9529 -0.1787 -0.2451
vn -0.1569 -0.2707 -0.9498
vn 0.8690 0.3869 -0.3085
vn 0.8698 0.3855 -0.3079
vn -0.1575 -0.2738 -0.9488
vn -0.0000 1.0000 -0.0000
vn -0.5774 0.5774 0.5774
vn -0.7071 -0.0000 0.7071
vn -0.1016 -0.0000 0.9948
vn -0.0000 -0.0000 1.0000
vn -0.6007 0.6007 0.5275
vn -0.3416 0.8756 0.3416
vn -0.3213 0.9470 -0.0000
vn -0.0000 0.4005 0.9163
vn 0.0007 0.7073 0.7069
vn -0.1572 -0.2740 -0.9488
vn -0.1574 -0.2738 -0.9488
vn -0.1576 -0.2739 -0.9488
vn -0.1574 -0.2739 -0.9488
vn -0.6683 0.3266 0.6683
vt 1.000000 0.000000
vt 1.000000 1.000000
vt 0.000000 0.000000
vt 0.794179 0.408560
vt 0.738796 0.330237
vt 0.261204 0.797261
vt 0.766488 0.369398
vt 0.699635 0.330237
vt 0.583541 0.309934
vt 0.595330 0.330237
vt 0.685871 0.352680
vt 0.748208 0.395249
vt 0.699635 0.356088
vt 0.531723 0.219871
vt 0.557900 0.214912
vt 0.719904 0.189741
vt 0.859101 0.121522
vt 0.177984 0.775532
vt 0.787079 0.408560
vt 0.261204 0.794980
vt 0.794179 0.410841
vt 0.738796 0.204833
vt 0.172530 0.797261
vt 1.000000 0.582717
vt 0.582717 0.582717
vt 0.797515 0.000000
vt 0.797515 0.797515
vt 0.796704 0.234855
vt 0.301309 0.000000
vt 0.301309 0.301309
vt 0.232812 0.198457
vt 1.000000 0.451648
vt 0.548352 0.000000
vt 0.699635 0.188329
vt 0.273908 0.000000
vt 0.273908 0.273908
vt 1.000000 0.725690
vt 0.725690 0.725690
vt 0.786096 0.753577
vt 0.576520 0.274358
vt 0.728451 0.196555
vt 1.000000 0.858319
vt 0.858319 0.858319
vt 0.002676 0.000000
vt 0.997324 0.000000
s 1
usemtl マテリアル.001
f 10/16/2 15/22/3 3/8/4
s 0
f 2/6/11 12/18/11 14/20/11
f 13/19/12 3/7/12 2/4/12
s 1
f 3/8/4 6/11/13 5/10/14
s 0
f 8/14/15 22/34/15 5/10/15
s 1
f 13/19/16 2/4/17 14/21/18
f 3/8/4 22/34/19 10/16/2
f 10/16/2 27/41/20 15/22/3
f 15/22/3 2/5/17 3/8/4
s 0
f 2/6/11 15/23/11 12/18/11
f 13/19/12 7/12/12 3/7/12
s 1
f 3/8/4 7/13/25 6/11/13
s 0
f 5/10/15 4/9/15 8/14/15
f 8/14/15 9/15/15 22/34/15
f 22/34/15 3/8/15 5/10/15
usemtl Inner
f 17/26/1 18/28/1 19/29/1
f 1/1/5 28/42/5 29/44/5
f 1/3/6 11/17/6 28/43/6
f 23/35/7 1/1/7 24/37/7
f 1/2/8 26/40/8 16/24/8
f 16/25/9 21/32/9 1/2/9
f 24/38/10 29/45/10 19/30/10
f 1/3/6 21/33/6 11/17/6
f 1/2/8 23/36/8 26/40/8
f 20/31/21 25/39/21 24/38/21
f 24/38/22 1/3/22 29/45/22
f 29/45/23 17/27/23 19/30/23
f 19/30/24 20/31/24 24/38/24
