# Blender 3.5.0
# www.blender.org
mtllib blockParticle_12.mtl
o 立方体_cell.014
v 0.333408 0.283782 -0.486644
v 0.422684 -0.199429 0.295914
v -0.364136 -0.850447 0.427758
v 0.598853 0.063049 0.098987
v 0.591070 0.040014 0.123947
v 0.453674 0.073033 0.288115
v 0.041983 0.311383 -0.417892
v 0.330223 0.311383 -0.472608
v -0.405404 -0.184365 -0.568383
v -0.432984 0.099354 -0.428126
v -0.432984 -0.137464 -0.540804
v -0.220955 0.311383 -0.367709
v -0.220955 0.311383 0.391884
v -0.244552 0.287785 0.395912
v 0.338219 0.311383 0.303413
v -0.432984 -0.148922 0.430638
v -0.432984 -0.822008 0.438170
v -0.432984 0.099354 0.427810
v 0.490742 0.311383 0.100619
v 0.515538 0.311383 0.067332
v 0.370490 0.311383 -0.355505
v -0.432984 -0.223255 -0.540804
v -0.432984 -0.871542 0.387975
v 0.041983 0.311383 -0.417892
v 0.330223 0.311383 -0.472608
v -0.405404 -0.184365 -0.568383
v -0.432984 -0.137464 -0.540804
v -0.220955 0.311383 -0.367709
v -0.220955 0.311383 0.391884
v -0.244552 0.287785 0.395912
v -0.432984 -0.148922 0.430638
v -0.432984 0.099354 0.427810
v 0.490742 0.311383 0.100619
v 0.515538 0.311383 0.067332
v -0.432984 0.099354 -0.428126
v 0.370490 0.311383 -0.355505
v 0.338219 0.311383 0.303413
v -0.432984 -0.223255 -0.540804
v -0.432984 -0.871542 0.387975
v -0.432984 -0.822008 0.438170
vn -0.1683 0.4313 -0.8864
vn -0.1698 0.4234 -0.8899
vn 0.1563 0.0123 0.9876
vn 0.1540 0.0111 0.9880
vn 0.1559 0.0113 0.9877
vn 0.7547 0.3291 0.5676
vn 0.7574 0.3285 0.5642
vn 0.7722 0.3284 0.5439
vn 0.9118 0.2660 -0.3128
vn 0.9119 0.2647 -0.3136
vn 0.5046 -0.7072 -0.4953
vn 0.5032 -0.7086 -0.4946
vn -0.1846 -0.6996 0.6903
vn 0.1569 0.0104 0.9876
vn 0.7584 -0.0677 0.6483
vn 0.5038 -0.7088 -0.4937
vn -0.0000 1.0000 -0.0000
vn -1.0000 -0.0000 -0.0000
vn -0.9800 -0.0000 -0.1992
vn -0.9884 -0.0000 -0.1521
vn -0.7071 -0.0000 -0.7071
vn -0.9510 0.3091 -0.0000
vn -0.7071 0.7071 -0.0000
vn -0.4165 0.9091 -0.0000
vn 0.1560 0.0113 0.9877
vn 0.7558 0.3281 0.5666
vn 0.5031 -0.7085 -0.4949
vn 0.5043 -0.7081 -0.4943
vn 0.5035 -0.7081 -0.4951
vn -0.3838 0.9234 -0.0000
vn -0.9306 0.3662 -0.0000
vt 0.000000 0.000000
vt 1.000000 0.000000
vt 1.000000 1.000000
vt 0.000000 0.000000
vt 1.000000 0.000000
vt 1.000000 0.000000
vt 1.000000 1.000000
vt 0.000000 0.000000
vt 1.000000 0.000000
vt 0.000000 0.000000
vt 1.000000 0.000000
vt 0.000000 0.000000
vt 1.000000 1.000000
vt 1.000000 0.000000
vt 0.000000 0.000000
vt 0.226864 0.528888
vt 0.189219 0.518782
vt 0.647232 0.374492
vt 1.000000 0.309425
vt 0.738796 0.678823
vt 0.655895 0.369398
vt 0.969071 0.330236
vt 0.261204 0.538157
vt 0.794179 0.667664
vt 0.827329 0.701458
vt 0.788015 0.526624
vt 0.188175 0.662113
vt 0.967575 0.150812
vt 0.879668 0.149421
vt 1.000000 0.151335
vt 0.738796 0.520733
vt 0.168255 0.624657
vt 0.165017 0.618509
vt 0.183960 0.540411
vt 0.640049 0.369398
vt 0.957867 0.330236
vt 0.873199 0.158692
vt 1.000000 0.356849
vt 0.356849 0.356849
vt 0.644655 0.000000
vt 1.000000 0.355344
vt 0.905339 0.000000
vt 1.000000 0.094662
vt 0.939055 0.108229
vt 0.678846 0.636950
vt 0.261204 0.678453
vt 0.794179 0.527368
vt 0.745399 0.745399
vt 1.000000 0.745399
vt 1.000000 0.579015
vt 0.579015 0.579015
vt 0.790311 0.763490
vt 1.000000 0.825173
vt 0.825173 0.825173
vt 1.000000 0.843108
vt 0.843108 0.843108
vt 0.831014 0.831014
vt 0.938762 0.506361
vt 0.832203 0.000000
vt 0.832203 0.832203
vt 0.172536 0.000000
vt 0.827464 0.000000
vt 0.954181 0.950187
vt 0.420740 0.000000
vt 0.579260 0.000000
vt 0.421612 0.000000
vt 1.000000 0.578388
s 0
usemtl マテリアル.001
f 29/46/17 19/32/17 21/34/17
f 11/22/18 23/37/18 16/28/18
s 1
f 22/35/19 11/21/20 9/18/21
f 10/20/22 14/26/23 29/47/24
s 0
f 21/34/17 8/17/17 7/16/17
f 7/16/17 12/23/17 29/46/17
f 29/46/17 15/27/17 19/32/17
f 19/32/17 20/33/17 21/34/17
f 21/34/17 7/16/17 29/46/17
f 18/30/18 10/19/18 11/22/18
f 11/22/18 22/36/18 23/37/18
f 23/37/18 17/29/18 16/28/18
f 16/28/18 18/30/18 11/22/18
s 1
f 29/47/24 12/24/30 10/20/22
f 10/20/22 18/31/31 14/26/23
s 0
usemtl Inner
f 25/40/1 1/2/1 24/38/1
f 24/39/2 26/42/2 35/58/2
f 6/15/3 13/25/3 30/48/3
f 3/6/4 31/50/4 40/66/4
f 3/8/5 30/49/5 32/52/5
f 6/14/6 33/53/6 37/61/6
f 33/54/7 5/11/7 34/55/7
f 34/56/8 5/12/8 4/9/8
f 4/10/9 36/59/9 34/57/9
f 1/2/10 36/60/10 4/10/10
f 4/10/11 5/11/11 1/3/11
f 39/65/12 26/43/12 5/12/12
f 3/6/13 40/67/13 39/64/13
f 3/8/14 2/5/14 6/13/14
f 2/4/15 5/11/15 6/13/15
f 5/12/16 2/5/16 3/7/16
f 35/58/2 28/45/2 24/39/2
f 24/39/2 1/1/2 26/42/2
f 26/42/2 27/44/2 35/58/2
f 6/15/3 37/62/3 13/25/3
f 32/52/25 31/51/25 3/8/25
f 3/8/5 6/14/5 30/49/5
f 33/54/26 6/15/26 5/11/26
f 1/2/10 25/41/10 36/60/10
f 5/12/27 3/8/27 39/65/27
f 39/65/28 38/63/28 26/43/28
f 26/43/29 1/3/29 5/12/29
