# Blender 3.5.0
# www.blender.org
mtllib blockParticle_18.mtl
o 立方体_cell.020
v 0.521948 0.440716 0.175437
v 0.414316 -0.551553 0.479562
v 0.491445 0.334289 -0.477038
v 0.459003 0.059964 -0.468602
v 0.365643 -0.784744 -0.277763
v -0.324962 -0.588985 -0.336734
v 0.129095 -0.762794 -0.288231
v -0.395413 0.360557 0.268451
v -0.206677 0.549294 -0.369276
v -0.183384 0.572586 -0.373193
v 0.375949 0.572586 -0.461350
v 0.398562 0.572586 -0.283532
v 0.453109 0.572586 0.149033
v 0.426673 0.572586 0.153489
v 0.406955 -0.550490 0.480480
v 0.027570 -0.510590 0.480480
v -0.183384 -0.488133 0.480480
v -0.294145 -0.511122 0.369720
v -0.395413 0.360557 -0.337142
v -0.395413 0.117316 -0.334183
v -0.395413 -0.559765 -0.325824
v -0.183384 0.572586 0.254626
v -0.324649 0.360557 0.339215
v -0.213818 0.542152 0.268451
v -0.183384 -0.210301 0.480480
v -0.395413 -0.483938 0.268451
v -0.395413 -0.558502 -0.315487
v -0.206677 0.549294 -0.369276
v -0.183384 0.572586 -0.373193
v 0.375949 0.572586 -0.461350
v 0.027570 -0.510590 0.480480
v -0.183384 -0.488133 0.480480
v -0.294145 -0.511122 0.369720
v -0.395413 0.360557 -0.337142
v -0.183384 0.572586 0.254626
v -0.213818 0.542152 0.268451
v -0.324649 0.360557 0.339215
v -0.183384 -0.210301 0.480480
v 0.406955 -0.550490 0.480480
v -0.395413 0.117316 -0.334183
v -0.395413 -0.559765 -0.325824
v -0.395413 -0.483938 0.268451
v -0.395413 -0.558502 -0.315487
v 0.398562 0.572586 -0.283532
v 0.453109 0.572586 0.149033
v 0.426673 0.572586 0.153489
vn 0.9922 -0.1185 -0.0393
vn -0.9173 0.3982 -0.0000
vn -0.7052 0.7052 0.0724
vn -0.3494 0.9370 -0.0000
vn -0.1557 -0.0104 -0.9878
vn 0.8911 0.4394 -0.1133
vn 0.8899 0.4421 -0.1122
vn 0.1599 0.2734 0.9485
vn -0.0998 -0.9491 0.2987
vn -0.5475 -0.0000 0.8368
vn -0.8756 0.3416 0.3416
vn -0.7071 -0.0000 0.7071
vn -0.0000 1.0000 -0.0000
vn 0.0225 -0.2227 -0.9746
vn 0.0194 -0.2215 -0.9750
vn -0.1580 -0.0122 -0.9874
vn 0.9928 -0.1163 -0.0280
vn -0.3657 -0.9232 0.1179
vn -0.3657 -0.9239 0.1128
vn -1.0000 -0.0000 -0.0000
vn -0.0000 -0.0000 1.0000
vn -0.5774 0.5773 0.5774
vn 0.1573 0.2735 0.9489
vn -0.1010 -0.9492 0.2981
vn -0.1562 -0.0120 -0.9877
vn -0.7074 0.7068 -0.0006
vn -0.4372 0.8994 -0.0000
vn -0.3872 -0.0000 0.9220
vn -0.6777 0.2852 0.6777
vn -0.9211 -0.0000 0.3894
vn 0.9928 -0.1165 -0.0274
vn 0.1578 0.2738 0.9487
vn 0.1578 0.2735 0.9488
vn 0.1573 0.2737 0.9489
vn 0.1575 0.2736 0.9489
vn -0.1011 -0.9492 0.2981
vn -0.1013 -0.9492 0.2980
vn -0.1563 -0.0119 -0.9876
vt 1.000000 0.000000
vt 1.000000 1.000000
vt 0.000000 0.000000
vt 1.000000 0.000000
vt 0.000000 0.000000
vt 1.000000 1.000000
vt 1.000000 1.000000
vt 1.000000 0.000000
vt 1.000000 1.000000
vt 0.000000 0.000000
vt 1.000000 0.000000
vt 1.000000 1.000000
vt 1.000000 0.000000
vt 0.000000 0.000000
vt 0.000000 0.000000
vt 1.000000 1.000000
vt 1.000000 0.000000
vt 0.738796 0.408560
vt 0.699635 0.369398
vt 1.000000 0.039162
vt 0.788095 0.526347
vt 0.298542 0.174386
vt 0.188154 0.662468
vt 0.185201 0.695311
vt 0.178077 0.775205
vt 0.181529 0.776028
vt 0.531365 0.221201
vt 0.538735 0.291273
vt 0.585717 0.062120
vt 1.000000 0.803337
vt 0.196663 0.000000
vt 0.796771 0.028588
vt 0.968232 0.150468
vt 0.879804 0.148924
vt 0.358344 0.299900
vt 0.444055 0.137969
vt 0.359010 0.265011
vt 0.461122 0.128081
vt 0.719699 0.689909
vt 0.879969 0.147014
vt 0.255173 0.255173
vt 1.000000 0.255173
vt 0.794179 0.527071
vt 0.261204 0.678750
vt 1.000000 0.173839
vt 0.173839 0.173839
vt 0.061989 0.000000
vt 0.061989 0.061989
vt 0.542882 0.330237
vt 0.538636 0.350694
vt 0.738796 0.520412
vt 1.000000 0.151014
vt 0.794179 0.411113
vt 0.261204 0.794708
vt 0.786229 0.408560
vt 0.748038 0.395490
vt 0.699635 0.356328
vt 0.594198 0.330237
vt 0.982004 0.982004
vt 1.000000 0.982004
vt 0.582787 0.582787
vt 0.582787 0.000000
vt 0.585006 0.000000
vt 0.414994 0.000000
vt 0.543657 0.369398
vt 0.889707 0.039162
vt 0.086995 0.000000
vt 0.086995 0.086995
vt 0.275487 0.275487
vt 0.275487 0.000000
vt 1.000000 0.273311
vt 0.273312 0.273312
vt 0.042256 0.000000
vt 0.042256 0.042256
s 1
usemtl マテリアル.001
f 34/51/2 36/55/3 29/43/4
f 38/58/10 8/19/11 33/50/12
s 0
f 29/44/13 14/26/13 12/24/13
f 8/20/20 20/33/20 27/40/20
f 38/58/21 16/28/21 15/27/21
f 37/56/22 36/55/22 8/18/22
s 1
f 29/43/4 9/21/26 34/51/2
f 34/51/2 8/18/11 36/55/3
f 36/55/3 35/53/27 29/43/4
f 33/50/12 32/49/28 38/58/10
f 38/58/10 37/57/29 8/19/11
f 8/19/11 42/65/30 33/50/12
s 0
f 12/24/13 11/23/13 29/44/13
f 29/44/13 35/54/13 14/26/13
f 14/26/13 13/25/13 12/24/13
f 27/40/20 42/66/20 8/20/20
f 8/20/20 34/52/20 20/33/20
f 20/33/20 21/34/20 27/40/20
f 38/58/21 32/49/21 16/28/21
usemtl Inner
f 5/10/1 4/8/1 3/7/1
f 3/7/5 10/22/5 30/45/5
f 3/7/6 44/70/6 1/1/6
f 1/2/7 44/69/7 45/71/7
f 1/2/8 46/73/8 2/4/8
f 5/11/9 39/59/9 31/47/9
f 7/15/14 4/8/14 5/12/14
f 7/15/15 6/13/15 4/9/15
f 6/14/16 41/63/16 40/61/16
f 5/11/17 1/3/17 2/5/17
f 7/17/18 26/39/18 43/67/18
f 6/13/19 43/68/19 41/64/19
f 39/60/23 46/74/23 24/37/23
f 7/17/24 31/48/24 17/29/24
f 19/32/25 3/7/25 6/14/25
f 3/7/5 28/41/5 10/22/5
f 3/7/6 30/46/6 44/70/6
f 1/2/8 45/72/8 46/73/8
f 5/11/9 2/6/9 39/59/9
f 5/11/31 3/7/31 1/3/31
f 7/17/18 18/30/18 26/39/18
f 6/13/19 7/16/19 43/68/19
f 23/36/32 25/38/32 39/60/32
f 39/60/33 2/6/33 46/74/33
f 46/74/34 22/35/34 24/37/34
f 24/37/35 23/36/35 39/60/35
f 17/29/36 18/31/36 7/17/36
f 7/17/37 5/12/37 31/48/37
f 6/14/25 40/62/25 19/32/25
f 19/32/25 28/42/25 3/7/25
f 3/7/38 4/9/38 6/14/38
