# Blender 3.5.0
# www.blender.org
mtllib blockParticle_4.mtl
o 立方体_cell.005
v -0.413287 -0.014867 0.414966
v -0.425305 0.279890 -0.158171
v -0.529605 0.221214 -0.042014
v -0.397788 0.122243 -0.214818
v -0.568796 -0.007170 -0.027998
v 0.474134 -0.067437 0.503225
v 0.364832 -0.176739 0.562296
v -0.354882 -0.176739 0.516507
v -0.409403 -0.176739 0.513031
v 0.394374 -0.147197 -0.392143
v 0.364832 -0.176739 -0.390969
v -0.398610 -0.176739 -0.255746
v 0.500467 -0.041104 -0.396212
v 0.576861 0.035290 -0.381663
v 0.576861 0.328138 -0.284433
v 0.576861 0.335962 -0.281815
v 0.576861 0.333661 -0.277317
v 0.576861 0.035290 0.302129
v -0.417294 -0.176739 0.479373
v -0.547466 -0.176739 -0.077924
v -0.520505 -0.176739 -0.110303
v 0.474134 -0.067437 0.503225
v 0.364832 -0.176739 0.562296
v -0.354882 -0.176739 0.516507
v -0.409403 -0.176739 0.513031
v 0.394374 -0.147197 -0.392143
v 0.364832 -0.176739 -0.390969
v -0.398610 -0.176739 -0.255746
v 0.500467 -0.041104 -0.396212
v 0.576861 0.035290 -0.381663
v -0.547466 -0.176739 -0.077924
v -0.520505 -0.176739 -0.110303
v 0.576861 0.035290 0.302129
v 0.576861 0.335962 -0.281815
v 0.576861 0.333661 -0.277317
v -0.417294 -0.176739 0.479373
v 0.576861 0.328138 -0.284433
vn 0.0070 0.8890 0.4578
vn -0.1728 0.1341 -0.9758
vn -0.1725 0.1351 -0.9757
vn -0.1332 0.3123 -0.9406
vn -0.1335 0.3144 -0.9398
vn 0.0064 0.8902 0.4554
vn 0.7071 -0.7071 -0.0000
vn 0.7850 -0.6195 -0.0000
vn 0.3398 -0.9405 -0.0000
vn -0.9284 0.1760 0.3272
vn -0.9270 0.1793 0.3293
vn -0.9570 -0.1837 0.2244
vn -0.7653 0.0914 -0.6372
vn -0.7633 0.0897 -0.6397
vn -0.7655 0.0923 -0.6368
vn -0.7642 0.0958 -0.6378
vn 1.0000 -0.0000 -0.0000
vn -0.0544 0.5163 0.8547
vn -0.0000 -1.0000 -0.0000
vn 0.0072 0.8892 0.4575
vn 0.0071 0.8890 0.4578
vn 0.4085 -0.9128 -0.0000
vn 0.7070 -0.7072 -0.0000
vn 0.8977 -0.4406 -0.0000
vn -0.9568 -0.1861 0.2235
vn 1.0000 -0.0000 0.0011
vn -0.0544 0.5164 0.8546
vn -0.0000 1.0000 -0.0000
vt 1.000000 1.000000
vt 0.000000 0.000000
vt 1.000000 0.000000
vt 0.000000 0.000000
vt 0.000000 0.000000
vt 1.000000 0.000000
vt 0.000000 0.000000
vt 1.000000 1.000000
vt 1.000000 0.000000
vt 1.000000 0.000000
vt 0.000000 0.000000
vt 0.054873 0.234371
vt 0.771198 0.747746
vt 0.052420 0.111825
vt 0.053062 0.104704
vt 0.220247 0.213538
vt 0.220030 0.205821
vt 0.195054 0.106114
vt 0.220998 0.241249
vt 0.218311 0.261204
vt 0.200353 0.299450
vt 0.199869 0.300472
vt 0.199038 0.300172
vt 0.092015 0.261204
vt 0.059278 0.103674
vt 0.162211 0.086673
vt 0.168191 0.090194
vt 0.853451 0.000000
vt 0.146549 0.000000
vt 0.043963 0.205821
vt 1.000000 0.053492
vt 1.000000 1.000000
vt 1.000000 0.000000
vt 0.773135 0.773135
vt 1.000000 0.773135
vt 0.886620 0.744409
vt 0.142965 0.000000
vt 0.857035 0.000000
vt 0.876636 0.000000
vt 0.123364 0.000000
vt 0.272959 0.224070
vt 0.771299 0.771299
vt 0.771299 0.000000
vt 0.856040 0.856040
vt 1.000000 0.856040
vt 0.952063 0.262017
vt 0.952134 0.952134
vt 1.000000 0.952134
vt 0.956450 0.956450
vt 1.000000 0.956450
vt 1.000000 0.947173
vt 1.000000 0.950849
vt 0.950849 0.950849
s 1
usemtl マテリアル.001
f 13/19/7 18/24/8 23/30/9
s 0
f 14/20/17 16/22/17 17/23/17
f 19/25/19 21/27/19 11/17/19
s 1
f 11/17/22 10/16/23 13/19/7
f 13/19/7 14/20/24 18/24/8
f 18/24/8 6/12/7 23/30/9
f 23/30/9 11/17/22 13/19/7
s 0
f 17/23/17 18/24/17 14/20/17
f 14/20/26 15/21/26 16/22/26
f 11/17/19 23/30/19 8/14/19
f 8/14/19 9/15/19 19/25/19
f 19/25/19 20/26/19 21/27/19
f 21/27/19 12/18/19 11/17/19
f 11/17/19 8/14/19 19/25/19
usemtl Inner
f 22/28/1 35/49/1 3/5/1
f 4/9/2 27/36/2 28/37/2
f 26/34/3 4/7/3 29/39/3
f 29/40/4 37/52/4 30/41/4
f 2/3/5 37/53/5 4/7/5
f 2/4/6 35/50/6 34/47/6
f 3/5/10 25/33/10 1/1/10
f 3/5/11 5/10/11 25/32/11
f 5/11/12 36/51/12 25/32/12
f 5/11/13 32/45/13 31/42/13
f 28/38/14 32/44/14 4/7/14
f 5/11/15 3/6/15 4/8/15
f 3/5/16 2/3/16 4/8/16
f 25/33/18 7/13/18 22/29/18
f 3/5/20 1/2/20 22/28/20
f 22/28/21 33/46/21 35/49/21
f 4/9/2 26/35/2 27/36/2
f 29/40/4 4/9/4 37/52/4
f 2/3/5 34/48/5 37/53/5
f 2/4/6 3/6/6 35/50/6
f 5/11/25 31/43/25 36/51/25
f 5/11/13 4/9/13 32/45/13
f 22/29/27 1/2/27 25/33/27
f 25/33/28 24/31/28 7/13/28
