# Blender 3.5.0
# www.blender.org
mtllib blockParticle_11.mtl
o 立方体_cell.012
v 0.494777 0.140795 0.500987
v 0.208591 -0.216185 0.494730
v 0.289197 -0.120961 0.507982
v 0.300721 0.200565 0.517661
v -0.263796 -0.126534 -0.429865
v -0.051767 0.485416 -0.641894
v -0.263796 0.521505 -0.429865
v -0.263796 0.392115 0.440369
v 0.179280 0.411736 -0.641894
v 0.255614 0.387203 -0.641894
v -0.051767 -0.000110 -0.641894
v -0.110798 -0.102942 -0.582862
v 0.082377 0.168845 -0.641894
v -0.079146 -0.311184 0.450548
v -0.051767 -0.338563 0.453741
v -0.001077 -0.338563 0.461060
v -0.263796 -0.126534 0.428046
v -0.263796 0.349474 0.439387
v 0.091639 -0.338563 0.440867
v -0.156471 -0.233859 -0.429865
v -0.051767 -0.338563 0.063820
v -0.124358 -0.126534 -0.569303
v 0.095706 -0.338563 0.452029
v 0.091639 -0.338563 0.440867
v 0.095706 -0.338563 0.452029
v -0.051767 0.485416 -0.641894
v -0.263796 0.521505 -0.429865
v -0.263796 0.392115 0.440369
v -0.051767 -0.000110 -0.641894
v -0.110798 -0.102942 -0.582862
v -0.079146 -0.311184 0.450548
v -0.051767 -0.338563 0.453741
v -0.263796 -0.126534 0.428046
v -0.263796 0.349474 0.439387
v -0.051767 -0.338563 0.063820
v -0.124358 -0.126534 -0.569303
v 0.179280 0.411736 -0.641894
v 0.255614 0.387203 -0.641894
v -0.001077 -0.338563 0.461060
v 0.082377 0.168845 -0.641894
v -0.156471 -0.233859 -0.429865
vn 0.3024 0.9428 0.1400
vn 0.7501 -0.5956 -0.2874
vn -0.1429 -0.0275 0.9894
vn -0.1441 -0.0236 0.9893
vn -0.1432 -0.0228 0.9894
vn -0.1333 -0.0250 0.9908
vn 0.0756 -0.0327 0.9966
vn 0.7525 -0.5984 -0.2751
vn -0.9223 -0.0000 -0.3864
vn -0.5852 -0.0000 -0.8109
vn -0.6979 -0.1607 -0.6979
vn 0.7527 -0.5993 -0.2725
vn 0.0853 -0.3974 0.9137
vn -0.0000 -0.0000 -1.0000
vn -1.0000 -0.0000 -0.0000
vn -0.5774 -0.5774 -0.5774
vn 0.3008 0.9433 0.1403
vn -0.8756 -0.3416 -0.3416
vn -0.6464 -0.7630 -0.0000
vn -0.7071 -0.7071 -0.0000
vn -0.0000 -1.0000 -0.0000
vn 0.7508 -0.5956 -0.2856
vn 0.3030 0.9427 0.1399
vn 0.7526 -0.5987 -0.2742
vn -0.4375 -0.0000 -0.8992
vn -0.7078 0.0019 -0.7064
vn -0.0000 -0.0003 -1.0000
vn -1.0000 -0.0000 -0.0013
vn 0.3009 0.9433 0.1403
vn -0.9208 -0.3900 -0.0000
vn -0.6855 -0.6855 -0.2451
vn -0.3556 -0.9347 -0.0000
vn 0.7508 -0.5956 -0.2855
vt 0.000000 0.000000
vt 1.000000 0.000000
vt 1.000000 1.000000
vt 1.000000 0.000000
vt 0.000000 0.000000
vt 1.000000 0.000000
vt 0.000000 0.000000
vt 1.000000 1.000000
vt 0.000000 0.000000
vt 1.000000 0.000000
vt 0.408560 0.369398
vt 0.794179 0.330236
vt 0.993880 0.456311
vt 0.828218 0.725156
vt 1.000000 0.919098
vt 0.080902 0.000000
vt 0.507977 0.451234
vt 0.503446 0.465333
vt 0.531200 0.239205
vt 0.412917 0.397657
vt 0.463116 0.433336
vt 0.745947 0.167625
vt 0.738796 0.167035
vt 0.167035 0.000000
vt 0.165684 0.006620
vt 0.904700 0.596732
vt 0.856346 0.169687
vt 0.169413 0.018729
vt 0.869628 0.196541
vt 0.376722 0.063457
vt 0.991171 0.333014
vt 0.167352 0.019260
vt 1.000000 0.094354
vt 0.094354 0.094354
vt 0.813333 0.813333
vt 0.710179 0.710179
vt 0.813332 0.000000
vt 0.521586 0.408560
vt 0.528252 0.369398
vt 0.878814 0.330236
vt 0.861915 0.169505
vt 0.431910 0.408560
vt 0.636985 0.000000
vt 1.000000 0.363015
vt 0.551026 0.551026
vt 1.000000 0.551026
vt 0.512210 0.223495
vt 0.794179 0.171781
vt 0.904821 0.000000
vt 0.904821 0.904821
vt 0.738796 0.239053
vt 0.239054 0.000000
vt 0.775968 0.355991
vt 0.408560 0.395152
vt 0.958470 0.958470
vt 1.000000 0.958469
vt 0.958280 0.000000
vt 1.000000 0.041720
vt 0.711953 0.000000
vt 0.288047 0.000000
vt 0.291340 0.000000
vt 1.000000 0.708660
vt 0.766145 0.330236
s 1
usemtl マテリアル.001
f 27/39/9 29/42/10 36/54/11
s 0
f 26/38/14 10/18/14 13/21/14
f 28/41/15 5/12/15 33/48/15
f 41/63/16 5/12/16 36/53/16
s 1
f 5/12/18 35/51/19 14/22/20
s 0
f 16/25/21 35/52/21 19/28/21
s 1
f 36/54/11 5/11/18 27/39/9
f 27/39/9 26/38/25 29/42/10
f 29/42/10 12/20/26 36/54/11
s 0
f 13/21/14 29/42/14 26/38/14
f 26/38/27 9/17/27 10/18/27
f 33/48/28 18/27/28 28/41/28
f 28/41/15 27/40/15 5/12/15
s 1
f 14/22/20 33/48/30 5/12/18
f 5/12/18 41/63/31 35/51/19
f 35/51/19 15/23/32 14/22/20
s 0
f 19/28/21 23/32/21 16/25/21
f 16/25/21 15/24/21 35/52/21
usemtl Inner
f 38/57/1 4/9/1 1/1/1
f 30/43/2 11/19/2 40/61/2
f 31/46/3 39/60/3 2/4/3
f 2/5/4 17/26/4 31/45/4
f 4/10/5 34/50/5 2/5/5
f 2/5/6 3/6/6 4/8/6
f 3/7/7 1/2/7 4/8/7
f 3/7/8 24/33/8 1/3/8
f 2/4/12 25/35/12 3/7/12
f 2/5/13 39/59/13 25/36/13
f 8/16/17 37/56/17 6/13/17
f 1/3/22 21/30/22 22/31/22
f 38/57/23 37/55/23 4/9/23
f 31/46/3 32/47/3 39/60/3
f 2/5/4 34/49/4 17/26/4
f 4/10/5 8/15/5 34/50/5
f 3/7/24 25/37/24 24/33/24
f 6/13/17 7/14/17 8/16/17
f 8/16/29 4/10/29 37/56/29
f 22/31/22 30/44/22 40/62/22
f 40/62/33 38/58/33 1/3/33
f 1/3/22 24/34/22 21/30/22
f 21/30/22 20/29/22 22/31/22
f 22/31/33 40/62/33 1/3/33
