{
	"asset":{
		"generator":"Khronos glTF Blender I/O v3.5.30",
		"version":"2.0"
	},
	"scene":0,
	"scenes":[
		{
			"name":"Scene",
			"nodes":[
				0
			]
		}
	],
	"nodes":[
		{
			"mesh":0,
			"name":"\u7acb\u65b9\u4f53_cell.021"
		}
	],
	"materials":[
		{
			"doubleSided":true,
			"name":"\u30de\u30c6\u30ea\u30a2\u30eb.001",
			"pbrMetallicRoughness":{
				"baseColorTexture":{
					"index":0
				},
				"metallicFactor":0,
				"roughnessFactor":0.5
			}
		},
		{
			"doubleSided":true,
			"name":"Inner",
			"pbrMetallicRoughness":{
				"baseColorTexture":{
					"index":1
				},
				"metallicFactor":0,
				"roughnessFactor":0.5
			}
		}
	],
	"meshes":[
		{
			"name":"\u7acb\u65b9\u4f53_cell.040",
			"primitives":[
				{
					"attributes":{
						"POSITION":0,
						"TEXCOORD_0":1,
						"NORMAL":2
					},
					"indices":3,
					"material":0
				},
				{
					"attributes":{
						"POSITION":4,
						"TEXCOORD_0":5,
						"NORMAL":6
					},
					"indices":7,
					"material":1
				}
			]
		}
	],
	"textures":[
		{
			"sampler":0,
			"source":0
		},
		{
			"sampler":0,
			"source":1
		}
	],
	"images":[
		{
			"mimeType":"image/png",
			"name":"block",
			"uri":"block.png"
		},
		{
			"mimeType":"image/png",
			"name":"black2x2",
			"uri":"black2x2.png"
		}
	],
	"accessors":[
		{
			"bufferView":0,
			"componentType":5126,
			"count":26,
			"max":[
				0.47230350971221924,
				0.3098716139793396,
				0.20338097214698792
			],
			"min":[
				-0.43597865104675293,
				-0.8112654089927673,
				-0.12629440426826477
			],
			"type":"VEC3"
		},
		{
			"bufferView":1,
			"componentType":5126,
			"count":26,
			"type":"VEC2"
		},
		{
			"bufferView":2,
			"componentType":5126,
			"count":26,
			"type":"VEC3"
		},
		{
			"bufferView":3,
			"componentType":5123,
			"count":45,
			"type":"SCALAR"
		},
		{
			"bufferView":4,
			"componentType":5126,
			"count":27,
			"max":[
				0.47230350971221924,
				0.3098716139793396,
				0.20338097214698792
			],
			"min":[
				-0.43597865104675293,
				-0.8112654089927673,
				-0.12629440426826477
			],
			"type":"VEC3"
		},
		{
			"bufferView":5,
			"componentType":5126,
			"count":27,
			"type":"VEC2"
		},
		{
			"bufferView":6,
			"componentType":5126,
			"count":27,
			"type":"VEC3"
		},
		{
			"bufferView":7,
			"componentType":5123,
			"count":39,
			"type":"SCALAR"
		}
	],
	"bufferViews":[
		{
			"buffer":0,
			"byteLength":312,
			"byteOffset":0,
			"target":34962
		},
		{
			"buffer":0,
			"byteLength":208,
			"byteOffset":312,
			"target":34962
		},
		{
			"buffer":0,
			"byteLength":312,
			"byteOffset":520,
			"target":34962
		},
		{
			"buffer":0,
			"byteLength":90,
			"byteOffset":832,
			"target":34963
		},
		{
			"buffer":0,
			"byteLength":324,
			"byteOffset":924,
			"target":34962
		},
		{
			"buffer":0,
			"byteLength":216,
			"byteOffset":1248,
			"target":34962
		},
		{
			"buffer":0,
			"byteLength":324,
			"byteOffset":1464,
			"target":34962
		},
		{
			"buffer":0,
			"byteLength":78,
			"byteOffset":1788,
			"target":34963
		}
	],
	"samplers":[
		{
			"magFilter":9729,
			"minFilter":9987
		}
	],
	"buffers":[
		{
			"byteLength":1868,
			"uri":"blockParticle_19.bin"
		}
	]
}
