# Blender 3.5.0
# www.blender.org
mtllib blockParticle_14.mtl
o 立方体_cell.016
v 0.160871 0.864852 -0.273424
v 0.248333 0.381740 0.510318
v -0.535458 -0.268219 0.642284
v 0.426679 0.644451 0.313994
v 0.418956 0.623330 0.337157
v 0.153954 -0.624444 0.605076
v -0.041735 -0.563831 0.622193
v 0.384322 -0.614320 0.502033
v 0.277975 -0.631366 0.612276
v 0.154889 -0.463517 0.701082
v -0.080876 -0.441252 0.691062
v 0.650254 0.025681 -0.317080
v 0.667614 0.190335 0.187852
v 0.442910 0.619138 0.318030
v 0.738025 0.019333 0.152174
v 0.417366 -0.561986 0.496014
v 0.277642 -0.618957 0.620296
v -0.389632 -0.280256 -0.538365
v -0.395313 -0.278589 -0.537405
v -0.085393 -0.377226 -0.538365
v -0.564462 -0.249962 -0.368255
v -0.606382 -0.242781 -0.326336
v -0.606382 -0.371801 0.541826
v -0.606382 0.350130 -0.316270
v -0.606382 0.357132 -0.326336
v -0.577221 0.398113 -0.355496
v 0.181657 0.755251 -0.465894
v 0.133992 0.682780 -0.538365
v -0.537227 0.395398 -0.395490
v 0.006092 0.610864 -0.538365
v -0.394353 0.385460 -0.538365
v -0.606382 -0.266601 0.568516
v 0.312906 -0.397683 -0.538365
v 0.322795 -0.398155 -0.538365
v -0.606382 -0.319360 0.580826
v -0.606382 -0.289493 0.600984
v 0.278280 0.564792 -0.538365
v 0.208055 0.682780 -0.538365
v 0.602127 0.019933 -0.538365
v 0.380648 -0.311697 -0.538365
v -0.606382 -0.319360 0.580826
v -0.606382 -0.289493 0.600984
v -0.389632 -0.280256 -0.538365
v -0.395313 -0.278589 -0.537405
v -0.085393 -0.377226 -0.538365
v -0.564462 -0.249962 -0.368255
v -0.606382 0.350130 -0.316270
v -0.606382 0.357132 -0.326336
v -0.577221 0.398113 -0.355496
v 0.181657 0.755251 -0.465894
v 0.133992 0.682780 -0.538365
v -0.537227 0.395398 -0.395490
v 0.006092 0.610864 -0.538365
v -0.394353 0.385460 -0.538365
v -0.606382 -0.371801 0.541826
v -0.606382 -0.242781 -0.326336
v 0.278280 0.564792 -0.538365
v 0.208055 0.682780 -0.538365
v 0.602127 0.019933 -0.538365
v 0.380648 -0.311697 -0.538365
v 0.322795 -0.398155 -0.538365
v -0.606382 -0.266601 0.568516
v 0.312906 -0.397683 -0.538365
vn -0.3006 -0.9433 -0.1410
vn -0.3017 -0.9430 -0.1401
vn -0.4244 -0.0007 -0.9055
vn -0.7071 -0.0000 -0.7071
vn -0.3343 -0.0000 -0.9425
vn -0.4296 0.7640 -0.4814
vn -0.4296 0.7632 -0.4827
vn -0.5039 0.7086 0.4939
vn -0.0502 -0.9783 -0.2010
vn -0.0788 -0.5426 0.8363
vn -0.0828 -0.5093 0.8566
vn -0.3035 -0.9446 -0.1247
vn -0.0467 -0.9786 -0.2006
vn -0.0435 -0.9801 -0.1935
vn -0.2984 -0.5513 0.7791
vn -0.3003 -0.5336 0.7906
vn -0.5022 0.7068 0.4983
vn 0.6316 0.1045 0.7682
vn -0.0202 0.2222 0.9748
vn 0.6325 0.1033 0.7676
vn -0.4910 0.7190 0.4919
vn 0.8400 0.5084 -0.1893
vn 0.8431 0.5017 -0.1936
vn 0.8429 0.5017 -0.1946
vn 0.8429 0.5010 -0.1963
vn 0.8203 -0.5478 -0.1642
vn 0.8201 -0.5487 -0.1625
vn 0.6950 -0.3770 0.6122
vn 0.6971 -0.3695 0.6144
vn 0.6384 0.0993 0.7633
vn 0.6364 0.1017 0.7646
vn 0.6341 0.1025 0.7664
vn -0.0830 -0.5104 0.8559
vn -0.0844 -0.5084 0.8570
vn -0.2896 -0.5374 0.7920
vn 0.8213 -0.5473 -0.1610
vn 0.8300 -0.5401 -0.1390
vn -0.0206 0.2208 0.9751
vn 0.5961 0.4843 0.6404
vn 0.6421 0.1060 0.7593
vn 0.8440 0.5007 -0.1923
vn 0.8999 0.4045 -0.1629
vn -0.5034 0.7093 0.4934
vn -1.0000 -0.0000 -0.0000
vn -0.0000 0.7071 -0.7071
vn -0.0000 0.2932 -0.9560
vn -0.0000 0.2278 -0.9737
vn -0.0000 -0.0000 -1.0000
vn -0.7071 0.0005 -0.7071
vn -0.9251 -0.0000 -0.3797
vn -0.8448 -0.0000 -0.5351
vn -0.0678 -0.0005 -0.9977
vn -0.2562 -0.5768 0.7756
vn -0.5035 0.7092 0.4934
vn -0.0000 0.0003 -1.0000
vn -0.0000 0.0005 -1.0000
vt 0.000000 0.000000
vt 1.000000 1.000000
vt 1.000000 0.000000
vt 1.000000 0.000000
vt 1.000000 1.000000
vt 1.000000 1.000000
vt 1.000000 0.000000
vt 0.000000 0.000000
vt 1.000000 0.000000
vt 0.000000 0.000000
vt 1.000000 0.000000
vt 0.000000 0.000000
vt 0.000000 0.000000
vt 1.000000 0.000000
vt 1.000000 1.000000
vt 0.000000 0.000000
vt 1.000000 0.000000
vt 1.000000 1.000000
vt 0.000000 0.000000
vt 1.000000 1.000000
vt 1.000000 0.000000
vt 0.000000 0.000000
vt 1.000000 0.000000
vt 1.000000 1.000000
vt 0.000000 0.000000
vt 1.000000 0.000000
vt 1.000000 0.000000
vt 0.000000 0.000000
vt 1.000000 0.000000
vt 1.000000 1.000000
vt 0.000000 0.000000
vt 1.000000 0.000000
vt 0.000000 0.000000
vt 1.000000 0.000000
vt 0.000000 0.000000
vt 1.000000 1.000000
vt 0.000000 0.000000
vt 1.000000 0.000000
vt 0.000000 0.000000
vt 1.000000 0.000000
vt 0.000000 0.000000
vt 1.000000 0.000000
vt 1.000000 1.000000
vt 0.522044 0.408560
vt 0.522071 0.408382
vt 0.503852 0.465624
vt 0.527358 0.377141
vt 0.528684 0.369398
vt 0.879120 0.330236
vt 0.862223 0.169388
vt 0.956555 0.328377
vt 0.639488 0.369398
vt 0.957470 0.330236
vt 0.903558 0.903558
vt 1.000000 0.903558
vt 0.713020 0.514948
vt 0.699635 0.506144
vt 0.860404 0.860404
vt 1.000000 0.860404
vt 0.686352 0.482521
vt 0.692541 0.221640
vt 0.876009 0.164958
vt 0.500074 0.539190
vt 0.499987 0.541016
vt 0.869119 0.162685
vt 0.873019 0.158961
vt 0.677842 0.532794
vt 0.699635 0.519824
vt 0.577207 0.592609
vt 0.515956 0.551701
vt 0.587555 0.587555
vt 1.000000 0.587555
vt 0.586908 0.000000
vt 0.586908 0.586908
vt 0.523862 0.523862
vt 0.533988 0.533988
vt 1.000000 0.958382
vt 0.041618 0.000000
vt 1.000000 0.886208
vt 0.886208 0.886208
vt 1.000000 0.945131
vt 0.945131 0.945131
vt 0.958136 0.943739
vt 0.647057 0.374784
vt 0.611839 0.000000
vt 1.000000 0.388161
vt 0.889958 0.067126
vt 0.646555 0.382171
vt 0.221841 0.221841
vt 1.000000 0.221841
vt 0.644720 0.408560
vt 1.000000 0.061455
vt 0.938545 0.000000
vt 0.918972 0.918972
vt 0.937983 0.842161
vt 0.816790 0.816790
vt 0.816790 0.000000
vt 0.961683 0.124786
vt 0.814598 0.000000
vt 0.814598 0.814598
vt 0.815974 0.000000
vt 0.815974 0.815974
vt 0.045773 0.000000
vt 1.000000 0.954227
vt 0.055182 0.000000
vt 1.000000 0.944818
vt 0.041821 0.000000
vt 0.041821 0.041821
s 1
usemtl マテリアル.001
f 19/45/3 49/84/4 54/91/5
s 0
f 36/66/44 24/51/44 22/49/44
s 1
f 27/56/45 38/68/46 28/57/47
s 0
f 34/64/48 54/91/48 37/67/48
s 1
f 19/45/3 21/47/49 22/48/50
f 22/48/50 25/52/51 49/84/4
f 49/84/4 52/88/4 54/91/5
f 54/91/5 18/44/52 19/45/3
f 19/45/3 22/48/50 49/84/4
s 0
f 23/50/44 35/65/44 36/66/44
f 36/66/44 32/62/44 24/51/44
f 24/51/44 25/53/44 22/49/44
f 22/49/44 23/50/44 36/66/44
f 39/69/55 40/70/55 34/64/55
f 34/64/48 33/63/48 20/46/48
f 20/46/48 18/44/48 54/91/48
f 54/91/56 30/60/56 28/57/56
f 28/57/48 38/68/48 37/67/48
f 37/67/48 39/69/48 34/64/48
f 34/64/48 20/46/48 54/91/48
f 54/91/48 28/57/48 37/67/48
usemtl Inner
f 43/75/1 6/14/1 46/79/1
f 55/93/2 46/80/2 6/13/2
f 26/54/6 50/85/6 53/90/6
f 31/61/7 29/58/7 53/89/7
f 2/4/8 47/81/8 62/105/8
f 6/14/9 45/77/9 63/107/9
f 9/22/10 17/42/10 6/15/10
f 17/41/11 7/17/11 6/15/11
f 7/16/12 55/92/12 6/15/12
f 8/21/13 63/108/13 61/103/13
f 8/19/14 9/23/14 6/15/14
f 3/7/15 55/94/15 7/16/15
f 3/8/16 42/73/16 41/71/16
f 62/106/17 3/8/17 2/4/17
f 14/35/18 5/11/18 2/5/18
f 3/8/19 10/26/19 2/5/19
f 10/25/20 14/34/20 2/5/20
f 5/12/21 4/9/21 1/2/21
f 4/10/22 14/34/22 1/2/22
f 14/35/23 12/29/23 1/2/23
f 50/86/24 12/31/24 57/97/24
f 57/96/25 12/31/25 59/99/25
f 59/100/26 12/31/26 60/101/26
f 8/21/27 60/102/27 12/31/27
f 8/19/28 17/42/28 9/24/28
f 8/19/29 16/40/29 17/43/29
f 16/39/30 15/38/30 17/43/30
f 15/37/31 14/34/31 17/43/31
f 14/35/32 10/26/32 17/43/32
f 10/25/33 7/17/33 17/43/33
f 10/25/34 11/27/34 7/18/34
f 11/28/35 3/7/35 7/18/35
f 12/31/36 15/38/36 8/20/36
f 15/37/37 16/40/37 8/20/37
f 11/28/38 10/26/38 3/6/38
f 4/10/39 5/11/39 14/36/39
f 15/37/40 13/32/40 14/36/40
f 13/33/41 12/29/41 14/36/41
f 13/33/42 15/38/42 12/30/42
f 1/3/43 48/83/43 2/5/43
f 46/79/1 44/76/1 43/75/1
f 43/75/1 45/78/1 6/14/1
f 55/93/2 56/95/2 46/80/2
f 53/90/6 29/59/6 26/54/6
f 26/54/6 1/1/6 50/85/6
f 50/85/6 51/87/6 53/90/6
f 8/21/13 6/15/13 63/108/13
f 3/7/53 41/72/53 55/94/53
f 62/106/17 42/74/17 3/8/17
f 57/97/24 58/98/24 50/86/24
f 50/86/24 1/2/24 12/31/24
f 8/21/27 61/104/27 60/102/27
f 2/5/54 5/12/54 1/3/54
f 1/3/43 26/55/43 48/83/43
f 48/83/43 47/82/43 2/5/43
