{
	"asset":{
		"generator":"Khronos glTF Blender I/O v3.5.30",
		"version":"2.0"
	},
	"scene":0,
	"scenes":[
		{
			"name":"Scene",
			"nodes":[
				0
			]
		}
	],
	"nodes":[
		{
			"mesh":0,
			"name":"\u7acb\u65b9\u4f53_cell.019"
		}
	],
	"materials":[
		{
			"doubleSided":true,
			"name":"\u30de\u30c6\u30ea\u30a2\u30eb.001",
			"pbrMetallicRoughness":{
				"baseColorTexture":{
					"index":0
				},
				"metallicFactor":0,
				"roughnessFactor":0.5
			}
		},
		{
			"doubleSided":true,
			"name":"Inner",
			"pbrMetallicRoughness":{
				"baseColorTexture":{
					"index":1
				},
				"metallicFactor":0,
				"roughnessFactor":0.5
			}
		}
	],
	"meshes":[
		{
			"name":"\u7acb\u65b9\u4f53_cell.038",
			"primitives":[
				{
					"attributes":{
						"POSITION":0,
						"TEXCOORD_0":1,
						"NORMAL":2
					},
					"indices":3,
					"material":0
				},
				{
					"attributes":{
						"POSITION":4,
						"TEXCOORD_0":5,
						"NORMAL":6
					},
					"indices":7,
					"material":1
				}
			]
		}
	],
	"textures":[
		{
			"sampler":0,
			"source":0
		},
		{
			"sampler":0,
			"source":1
		}
	],
	"images":[
		{
			"mimeType":"image/png",
			"name":"block",
			"uri":"block.png"
		},
		{
			"mimeType":"image/png",
			"name":"black2x2",
			"uri":"black2x2.png"
		}
	],
	"accessors":[
		{
			"bufferView":0,
			"componentType":5126,
			"count":29,
			"max":[
				0.17854169011116028,
				0.5411843061447144,
				0.3742992877960205
			],
			"min":[
				-0.08328193426132202,
				-0.4004591107368469,
				-0.44231143593788147
			],
			"type":"VEC3"
		},
		{
			"bufferView":1,
			"componentType":5126,
			"count":29,
			"type":"VEC2"
		},
		{
			"bufferView":2,
			"componentType":5126,
			"count":29,
			"type":"VEC3"
		},
		{
			"bufferView":3,
			"componentType":5123,
			"count":57,
			"type":"SCALAR"
		},
		{
			"bufferView":4,
			"componentType":5126,
			"count":61,
			"max":[
				0.17854169011116028,
				0.5411843061447144,
				0.3742992877960205
			],
			"min":[
				-0.38442716002464294,
				-0.4004591107368469,
				-0.44231143593788147
			],
			"type":"VEC3"
		},
		{
			"bufferView":5,
			"componentType":5126,
			"count":61,
			"type":"VEC2"
		},
		{
			"bufferView":6,
			"componentType":5126,
			"count":61,
			"type":"VEC3"
		},
		{
			"bufferView":7,
			"componentType":5123,
			"count":87,
			"type":"SCALAR"
		}
	],
	"bufferViews":[
		{
			"buffer":0,
			"byteLength":348,
			"byteOffset":0,
			"target":34962
		},
		{
			"buffer":0,
			"byteLength":232,
			"byteOffset":348,
			"target":34962
		},
		{
			"buffer":0,
			"byteLength":348,
			"byteOffset":580,
			"target":34962
		},
		{
			"buffer":0,
			"byteLength":114,
			"byteOffset":928,
			"target":34963
		},
		{
			"buffer":0,
			"byteLength":732,
			"byteOffset":1044,
			"target":34962
		},
		{
			"buffer":0,
			"byteLength":488,
			"byteOffset":1776,
			"target":34962
		},
		{
			"buffer":0,
			"byteLength":732,
			"byteOffset":2264,
			"target":34962
		},
		{
			"buffer":0,
			"byteLength":174,
			"byteOffset":2996,
			"target":34963
		}
	],
	"samplers":[
		{
			"magFilter":9729,
			"minFilter":9987
		}
	],
	"buffers":[
		{
			"byteLength":3172,
			"uri":"blockParticle_17.bin"
		}
	]
}
