{
	"asset":{
		"generator":"Khronos glTF Blender I/O v4.0.43",
		"version":"2.0"
	},
	"scene":0,
	"scenes":[
		{
			"name":"Scene",
			"nodes":[
				0
			]
		}
	],
	"nodes":[
		{
			"mesh":0,
			"name":"\u7403"
		}
	],
	"materials":[
		{
			"doubleSided":true,
			"name":"\u30de\u30c6\u30ea\u30a2\u30eb.001",
			"pbrMetallicRoughness":{
				"baseColorTexture":{
					"index":0
				},
				"metallicFactor":0,
				"roughnessFactor":0.5
			}
		}
	],
	"meshes":[
		{
			"name":"\u7403",
			"primitives":[
				{
					"attributes":{
						"POSITION":0,
						"NORMAL":1,
						"TEXCOORD_0":2
					},
					"indices":3,
					"material":0
				}
			]
		}
	],
	"textures":[
		{
			"sampler":0,
			"source":0
		}
	],
	"images":[
		{
			"mimeType":"image/png",
			"name":"bom",
			"uri":"bom.png"
		}
	],
	"accessors":[
		{
			"bufferView":0,
			"componentType":5126,
			"count":1158,
			"max":[
				1.000001072883606,
				1,
				0.9904754757881165
			],
			"min":[
				-1.000001072883606,
				-1,
				-0.9904754757881165
			],
			"type":"VEC3"
		},
		{
			"bufferView":1,
			"componentType":5126,
			"count":1158,
			"type":"VEC3"
		},
		{
			"bufferView":2,
			"componentType":5126,
			"count":1158,
			"type":"VEC2"
		},
		{
			"bufferView":3,
			"componentType":5123,
			"count":6696,
			"type":"SCALAR"
		}
	],
	"bufferViews":[
		{
			"buffer":0,
			"byteLength":13896,
			"byteOffset":0,
			"target":34962
		},
		{
			"buffer":0,
			"byteLength":13896,
			"byteOffset":13896,
			"target":34962
		},
		{
			"buffer":0,
			"byteLength":9264,
			"byteOffset":27792,
			"target":34962
		},
		{
			"buffer":0,
			"byteLength":13392,
			"byteOffset":37056,
			"target":34963
		}
	],
	"samplers":[
		{
			"magFilter":9729,
			"minFilter":9987
		}
	],
	"buffers":[
		{
			"byteLength":50448,
			"uri":"bom.bin"
		}
	]
}
