{
	"asset":{
		"generator":"Khronos glTF Blender I/O v3.5.30",
		"version":"2.0"
	},
	"scene":0,
	"scenes":[
		{
			"name":"Scene",
			"nodes":[
				0
			]
		}
	],
	"nodes":[
		{
			"mesh":0,
			"name":"\u30c6\u30ad\u30b9\u30c8"
		}
	],
	"materials":[
		{
			"doubleSided":true,
			"name":"\u30de\u30c6\u30ea\u30a2\u30eb.004",
			"pbrMetallicRoughness":{
				"baseColorFactor":[
					0.006812480743974447,
					0.8000000715255737,
					0,
					1
				],
				"metallicFactor":0,
				"roughnessFactor":0.5
			}
		}
	],
	"meshes":[
		{
			"name":"\u30c6\u30ad\u30b9\u30c8.004",
			"primitives":[
				{
					"attributes":{
						"POSITION":0,
						"TEXCOORD_0":1,
						"NORMAL":2
					},
					"indices":3,
					"material":0
				}
			]
		}
	],
	"accessors":[
		{
			"bufferView":0,
			"componentType":5126,
			"count":1045,
			"max":[
				0.7951903939247131,
				1.1219626665115356,
				0.050000157207250595
			],
			"min":[
				-0.6792312860488892,
				-1.1181808710098267,
				-0.05000014975667
			],
			"type":"VEC3"
		},
		{
			"bufferView":1,
			"componentType":5126,
			"count":1045,
			"type":"VEC2"
		},
		{
			"bufferView":2,
			"componentType":5126,
			"count":1045,
			"type":"VEC3"
		},
		{
			"bufferView":3,
			"componentType":5123,
			"count":3084,
			"type":"SCALAR"
		}
	],
	"bufferViews":[
		{
			"buffer":0,
			"byteLength":12540,
			"byteOffset":0,
			"target":34962
		},
		{
			"buffer":0,
			"byteLength":8360,
			"byteOffset":12540,
			"target":34962
		},
		{
			"buffer":0,
			"byteLength":12540,
			"byteOffset":20900,
			"target":34962
		},
		{
			"buffer":0,
			"byteLength":6168,
			"byteOffset":33440,
			"target":34963
		}
	],
	"buffers":[
		{
			"byteLength":39608,
			"uri":"C.bin"
		}
	]
}
