{
	"asset":{
		"generator":"Khronos glTF Blender I/O v3.5.30",
		"version":"2.0"
	},
	"scene":0,
	"scenes":[
		{
			"name":"Scene",
			"nodes":[
				0
			]
		}
	],
	"nodes":[
		{
			"mesh":0,
			"name":"\u30c6\u30ad\u30b9\u30c8.003"
		}
	],
	"meshes":[
		{
			"name":"\u30c6\u30ad\u30b9\u30c8.024",
			"primitives":[
				{
					"attributes":{
						"POSITION":0,
						"TEXCOORD_0":1,
						"NORMAL":2
					},
					"indices":3
				}
			]
		}
	],
	"accessors":[
		{
			"bufferView":0,
			"componentType":5126,
			"count":4496,
			"max":[
				1.6135258674621582,
				2.8419480323791504,
				0.10000011324882507
			],
			"min":[
				-1.6917238235473633,
				-2.8419456481933594,
				-0.10000011324882507
			],
			"type":"VEC3"
		},
		{
			"bufferView":1,
			"componentType":5126,
			"count":4496,
			"type":"VEC2"
		},
		{
			"bufferView":2,
			"componentType":5126,
			"count":4496,
			"type":"VEC3"
		},
		{
			"bufferView":3,
			"componentType":5123,
			"count":22758,
			"type":"SCALAR"
		}
	],
	"bufferViews":[
		{
			"buffer":0,
			"byteLength":53952,
			"byteOffset":0,
			"target":34962
		},
		{
			"buffer":0,
			"byteLength":35968,
			"byteOffset":53952,
			"target":34962
		},
		{
			"buffer":0,
			"byteLength":53952,
			"byteOffset":89920,
			"target":34962
		},
		{
			"buffer":0,
			"byteLength":45516,
			"byteOffset":143872,
			"target":34963
		}
	],
	"buffers":[
		{
			"byteLength":189388,
			"uri":"number_3.bin"
		}
	]
}
