{
	"asset":{
		"generator":"Khronos glTF Blender I/O v3.5.30",
		"version":"2.0"
	},
	"scene":0,
	"scenes":[
		{
			"name":"Scene",
			"nodes":[
				0
			]
		}
	],
	"nodes":[
		{
			"mesh":0,
			"name":"\u30c6\u30ad\u30b9\u30c8.009"
		}
	],
	"meshes":[
		{
			"name":"\u30c6\u30ad\u30b9\u30c8.030",
			"primitives":[
				{
					"attributes":{
						"POSITION":0,
						"TEXCOORD_0":1,
						"NORMAL":2
					},
					"indices":3
				}
			]
		}
	],
	"accessors":[
		{
			"bufferView":0,
			"componentType":5126,
			"count":5404,
			"max":[
				1.7080156803131104,
				2.838684558868408,
				0.10000011324882507
			],
			"min":[
				-1.6539525985717773,
				-2.841944694519043,
				-0.10000011324882507
			],
			"type":"VEC3"
		},
		{
			"bufferView":1,
			"componentType":5126,
			"count":5404,
			"type":"VEC2"
		},
		{
			"bufferView":2,
			"componentType":5126,
			"count":5404,
			"type":"VEC3"
		},
		{
			"bufferView":3,
			"componentType":5123,
			"count":27324,
			"type":"SCALAR"
		}
	],
	"bufferViews":[
		{
			"buffer":0,
			"byteLength":64848,
			"byteOffset":0,
			"target":34962
		},
		{
			"buffer":0,
			"byteLength":43232,
			"byteOffset":64848,
			"target":34962
		},
		{
			"buffer":0,
			"byteLength":64848,
			"byteOffset":108080,
			"target":34962
		},
		{
			"buffer":0,
			"byteLength":54648,
			"byteOffset":172928,
			"target":34963
		}
	],
	"buffers":[
		{
			"byteLength":227576,
			"uri":"number_9.bin"
		}
	]
}
