{
	"asset":{
		"generator":"Khronos glTF Blender I/O v3.5.30",
		"version":"2.0"
	},
	"scene":0,
	"scenes":[
		{
			"name":"Scene",
			"nodes":[
				0
			]
		}
	],
	"nodes":[
		{
			"mesh":0,
			"name":"\u30c6\u30ad\u30b9\u30c8.000"
		}
	],
	"meshes":[
		{
			"name":"\u30c6\u30ad\u30b9\u30c8.009",
			"primitives":[
				{
					"attributes":{
						"POSITION":0,
						"TEXCOORD_0":1,
						"NORMAL":2
					},
					"indices":3
				}
			]
		}
	],
	"accessors":[
		{
			"bufferView":0,
			"componentType":5126,
			"count":3662,
			"max":[
				1.652622938156128,
				2.8386900424957275,
				0.10000011324882507
			],
			"min":[
				-1.652622938156128,
				-2.8386831283569336,
				-0.10000011324882507
			],
			"type":"VEC3"
		},
		{
			"bufferView":1,
			"componentType":5126,
			"count":3662,
			"type":"VEC2"
		},
		{
			"bufferView":2,
			"componentType":5126,
			"count":3662,
			"type":"VEC3"
		},
		{
			"bufferView":3,
			"componentType":5123,
			"count":18480,
			"type":"SCALAR"
		}
	],
	"bufferViews":[
		{
			"buffer":0,
			"byteLength":43944,
			"byteOffset":0,
			"target":34962
		},
		{
			"buffer":0,
			"byteLength":29296,
			"byteOffset":43944,
			"target":34962
		},
		{
			"buffer":0,
			"byteLength":43944,
			"byteOffset":73240,
			"target":34962
		},
		{
			"buffer":0,
			"byteLength":36960,
			"byteOffset":117184,
			"target":34963
		}
	],
	"buffers":[
		{
			"byteLength":154144,
			"uri":"number_0.bin"
		}
	]
}
