{
	"asset":{
		"generator":"Khronos glTF Blender I/O v3.5.30",
		"version":"2.0"
	},
	"scene":0,
	"scenes":[
		{
			"name":"Scene",
			"nodes":[
				0
			]
		}
	],
	"nodes":[
		{
			"mesh":0,
			"name":"\u30c6\u30ad\u30b9\u30c8.008"
		}
	],
	"meshes":[
		{
			"name":"\u30c6\u30ad\u30b9\u30c8.029",
			"primitives":[
				{
					"attributes":{
						"POSITION":0,
						"TEXCOORD_0":1,
						"NORMAL":2
					},
					"indices":3
				}
			]
		}
	],
	"accessors":[
		{
			"bufferView":0,
			"componentType":5126,
			"count":5395,
			"max":[
				1.6624011993408203,
				2.8386945724487305,
				0.10000011324882507
			],
			"min":[
				-1.6721762418746948,
				-2.838686466217041,
				-0.10000011324882507
			],
			"type":"VEC3"
		},
		{
			"bufferView":1,
			"componentType":5126,
			"count":5395,
			"type":"VEC2"
		},
		{
			"bufferView":2,
			"componentType":5126,
			"count":5395,
			"type":"VEC3"
		},
		{
			"bufferView":3,
			"componentType":5123,
			"count":27204,
			"type":"SCALAR"
		}
	],
	"bufferViews":[
		{
			"buffer":0,
			"byteLength":64740,
			"byteOffset":0,
			"target":34962
		},
		{
			"buffer":0,
			"byteLength":43160,
			"byteOffset":64740,
			"target":34962
		},
		{
			"buffer":0,
			"byteLength":64740,
			"byteOffset":107900,
			"target":34962
		},
		{
			"buffer":0,
			"byteLength":54408,
			"byteOffset":172640,
			"target":34963
		}
	],
	"buffers":[
		{
			"byteLength":227048,
			"uri":"number_8.bin"
		}
	]
}
