{
	"asset":{
		"generator":"Khronos glTF Blender I/O v3.5.30",
		"version":"2.0"
	},
	"scene":0,
	"scenes":[
		{
			"name":"Scene",
			"nodes":[
				0,
				1
			]
		}
	],
	"nodes":[
		{
			"mesh":0,
			"name":"\u30c6\u30ad\u30b9\u30c8.006"
		},
		{
			"mesh":1,
			"name":"\u30c6\u30ad\u30b9\u30c8.001"
		}
	],
	"meshes":[
		{
			"name":"\u30c6\u30ad\u30b9\u30c8.018",
			"primitives":[
				{
					"attributes":{
						"POSITION":0,
						"TEXCOORD_0":1,
						"TEXCOORD_1":2,
						"NORMAL":3
					},
					"indices":4
				}
			]
		},
		{
			"name":"\u30c6\u30ad\u30b9\u30c8.001",
			"primitives":[
				{
					"attributes":{
						"POSITION":5,
						"TEXCOORD_0":6,
						"TEXCOORD_1":7,
						"NORMAL":8
					},
					"indices":9
				}
			]
		}
	],
	"accessors":[
		{
			"bufferView":0,
			"componentType":5126,
			"count":9676,
			"max":[
				6.944431304931641,
				6.928121566772461,
				0.6000978350639343
			],
			"min":[
				-6.932699680328369,
				-7.194098472595215,
				-0.6000978350639343
			],
			"type":"VEC3"
		},
		{
			"bufferView":1,
			"componentType":5126,
			"count":9676,
			"type":"VEC2"
		},
		{
			"bufferView":2,
			"componentType":5126,
			"count":9676,
			"type":"VEC2"
		},
		{
			"bufferView":3,
			"componentType":5126,
			"count":9676,
			"type":"VEC3"
		},
		{
			"bufferView":4,
			"componentType":5123,
			"count":28344,
			"type":"SCALAR"
		},
		{
			"bufferView":5,
			"componentType":5126,
			"count":9651,
			"max":[
				9.920616149902344,
				9.897316932678223,
				0.6354608535766602
			],
			"min":[
				-9.903857231140137,
				-10.277283668518066,
				-1.0791043043136597
			],
			"type":"VEC3"
		},
		{
			"bufferView":6,
			"componentType":5126,
			"count":9651,
			"type":"VEC2"
		},
		{
			"bufferView":7,
			"componentType":5126,
			"count":9651,
			"type":"VEC2"
		},
		{
			"bufferView":8,
			"componentType":5126,
			"count":9651,
			"type":"VEC3"
		},
		{
			"bufferView":9,
			"componentType":5123,
			"count":28344,
			"type":"SCALAR"
		}
	],
	"bufferViews":[
		{
			"buffer":0,
			"byteLength":116112,
			"byteOffset":0,
			"target":34962
		},
		{
			"buffer":0,
			"byteLength":77408,
			"byteOffset":116112,
			"target":34962
		},
		{
			"buffer":0,
			"byteLength":77408,
			"byteOffset":193520,
			"target":34962
		},
		{
			"buffer":0,
			"byteLength":116112,
			"byteOffset":270928,
			"target":34962
		},
		{
			"buffer":0,
			"byteLength":56688,
			"byteOffset":387040,
			"target":34963
		},
		{
			"buffer":0,
			"byteLength":115812,
			"byteOffset":443728,
			"target":34962
		},
		{
			"buffer":0,
			"byteLength":77208,
			"byteOffset":559540,
			"target":34962
		},
		{
			"buffer":0,
			"byteLength":77208,
			"byteOffset":636748,
			"target":34962
		},
		{
			"buffer":0,
			"byteLength":115812,
			"byteOffset":713956,
			"target":34962
		},
		{
			"buffer":0,
			"byteLength":56688,
			"byteOffset":829768,
			"target":34963
		}
	],
	"buffers":[
		{
			"byteLength":886456,
			"uri":"number.bin"
		}
	]
}
