{
	"asset":{
		"generator":"Khronos glTF Blender I/O v3.5.30",
		"version":"2.0"
	},
	"scene":0,
	"scenes":[
		{
			"name":"Scene",
			"nodes":[
				0
			]
		}
	],
	"nodes":[
		{
			"mesh":0,
			"name":"\u30c6\u30ad\u30b9\u30c8"
		}
	],
	"materials":[
		{
			"doubleSided":true,
			"name":"\u30de\u30c6\u30ea\u30a2\u30eb.005",
			"pbrMetallicRoughness":{
				"baseColorFactor":[
					0.7938179969787598,
					0.8000000715255737,
					0,
					1
				],
				"metallicFactor":0,
				"roughnessFactor":0.5
			}
		}
	],
	"meshes":[
		{
			"name":"\u30c6\u30ad\u30b9\u30c8.005",
			"primitives":[
				{
					"attributes":{
						"POSITION":0,
						"TEXCOORD_0":1,
						"NORMAL":2
					},
					"indices":3,
					"material":0
				}
			]
		}
	],
	"accessors":[
		{
			"bufferView":0,
			"componentType":5126,
			"count":1434,
			"max":[
				0.7836428880691528,
				1.3742262125015259,
				0.05000041425228119
			],
			"min":[
				-0.7836428880691528,
				-1.3742262125015259,
				-0.05000041425228119
			],
			"type":"VEC3"
		},
		{
			"bufferView":1,
			"componentType":5126,
			"count":1434,
			"type":"VEC2"
		},
		{
			"bufferView":2,
			"componentType":5126,
			"count":1434,
			"type":"VEC3"
		},
		{
			"bufferView":3,
			"componentType":5123,
			"count":4236,
			"type":"SCALAR"
		}
	],
	"bufferViews":[
		{
			"buffer":0,
			"byteLength":17208,
			"byteOffset":0,
			"target":34962
		},
		{
			"buffer":0,
			"byteLength":11472,
			"byteOffset":17208,
			"target":34962
		},
		{
			"buffer":0,
			"byteLength":17208,
			"byteOffset":28680,
			"target":34962
		},
		{
			"buffer":0,
			"byteLength":8472,
			"byteOffset":45888,
			"target":34963
		}
	],
	"buffers":[
		{
			"byteLength":54360,
			"uri":"S.bin"
		}
	]
}
