{
	"asset":{
		"generator":"Khronos glTF Blender I/O v3.5.30",
		"version":"2.0"
	},
	"scene":0,
	"scenes":[
		{
			"name":"Scene",
			"nodes":[
				0
			]
		}
	],
	"nodes":[
		{
			"mesh":0,
			"name":"\u30c6\u30ad\u30b9\u30c8.001"
		}
	],
	"meshes":[
		{
			"name":"\u30c6\u30ad\u30b9\u30c8.044",
			"primitives":[
				{
					"attributes":{
						"POSITION":0,
						"TEXCOORD_0":1,
						"TEXCOORD_1":2,
						"NORMAL":3
					},
					"indices":4
				}
			]
		}
	],
	"accessors":[
		{
			"bufferView":0,
			"componentType":5126,
			"count":34147,
			"max":[
				0.2560901343822479,
				2.010000228881836,
				2.0174877643585205
			],
			"min":[
				-0.09965576976537704,
				-2.009999990463257,
				-2.0174880027770996
			],
			"type":"VEC3"
		},
		{
			"bufferView":1,
			"componentType":5126,
			"count":34147,
			"type":"VEC2"
		},
		{
			"bufferView":2,
			"componentType":5126,
			"count":34147,
			"type":"VEC2"
		},
		{
			"bufferView":3,
			"componentType":5126,
			"count":34147,
			"type":"VEC3"
		},
		{
			"bufferView":4,
			"componentType":5123,
			"count":156108,
			"type":"SCALAR"
		}
	],
	"bufferViews":[
		{
			"buffer":0,
			"byteLength":409764,
			"byteOffset":0,
			"target":34962
		},
		{
			"buffer":0,
			"byteLength":273176,
			"byteOffset":409764,
			"target":34962
		},
		{
			"buffer":0,
			"byteLength":273176,
			"byteOffset":682940,
			"target":34962
		},
		{
			"buffer":0,
			"byteLength":409764,
			"byteOffset":956116,
			"target":34962
		},
		{
			"buffer":0,
			"byteLength":312216,
			"byteOffset":1365880,
			"target":34963
		}
	],
	"buffers":[
		{
			"byteLength":1678096,
			"uri":"scoreOnePlace.bin"
		}
	]
}
