{
	"asset":{
		"generator":"Khronos glTF Blender I/O v3.5.30",
		"version":"2.0"
	},
	"scene":0,
	"scenes":[
		{
			"name":"Scene",
			"nodes":[
				0
			]
		}
	],
	"nodes":[
		{
			"mesh":0,
			"name":"\u30c6\u30ad\u30b9\u30c8.015"
		}
	],
	"meshes":[
		{
			"name":"\u30c6\u30ad\u30b9\u30c8.033",
			"primitives":[
				{
					"attributes":{
						"POSITION":0,
						"TEXCOORD_0":1,
						"NORMAL":2
					},
					"indices":3
				}
			]
		}
	],
	"accessors":[
		{
			"bufferView":0,
			"componentType":5126,
			"count":10934,
			"max":[
				5.776310920715332,
				5.72273063659668,
				0.5000002384185791
			],
			"min":[
				-5.7893452644348145,
				-5.757026195526123,
				-0.5000002384185791
			],
			"type":"VEC3"
		},
		{
			"bufferView":1,
			"componentType":5126,
			"count":10934,
			"type":"VEC2"
		},
		{
			"bufferView":2,
			"componentType":5126,
			"count":10934,
			"type":"VEC3"
		},
		{
			"bufferView":3,
			"componentType":5123,
			"count":31344,
			"type":"SCALAR"
		}
	],
	"bufferViews":[
		{
			"buffer":0,
			"byteLength":131208,
			"byteOffset":0,
			"target":34962
		},
		{
			"buffer":0,
			"byteLength":87472,
			"byteOffset":131208,
			"target":34962
		},
		{
			"buffer":0,
			"byteLength":131208,
			"byteOffset":218680,
			"target":34962
		},
		{
			"buffer":0,
			"byteLength":62688,
			"byteOffset":349888,
			"target":34963
		}
	],
	"buffers":[
		{
			"byteLength":412576,
			"uri":"scoreTenPlace.bin"
		}
	]
}
