{
	"asset":{
		"generator":"Khronos glTF Blender I/O v3.5.30",
		"version":"2.0"
	},
	"scene":0,
	"scenes":[
		{
			"name":"Scene",
			"nodes":[
				0
			]
		}
	],
	"nodes":[
		{
			"mesh":0,
			"name":"\u30c6\u30ad\u30b9\u30c8.001"
		}
	],
	"meshes":[
		{
			"name":"\u30c6\u30ad\u30b9\u30c8.001",
			"primitives":[
				{
					"attributes":{
						"POSITION":0,
						"TEXCOORD_0":1,
						"TEXCOORD_1":2,
						"NORMAL":3
					},
					"indices":4
				}
			]
		}
	],
	"accessors":[
		{
			"bufferView":0,
			"componentType":5126,
			"count":9651,
			"max":[
				9.920616149902344,
				9.897316932678223,
				0.6354608535766602
			],
			"min":[
				-9.903857231140137,
				-10.277283668518066,
				-1.0791043043136597
			],
			"type":"VEC3"
		},
		{
			"bufferView":1,
			"componentType":5126,
			"count":9651,
			"type":"VEC2"
		},
		{
			"bufferView":2,
			"componentType":5126,
			"count":9651,
			"type":"VEC2"
		},
		{
			"bufferView":3,
			"componentType":5126,
			"count":9651,
			"type":"VEC3"
		},
		{
			"bufferView":4,
			"componentType":5123,
			"count":28344,
			"type":"SCALAR"
		}
	],
	"bufferViews":[
		{
			"buffer":0,
			"byteLength":115812,
			"byteOffset":0,
			"target":34962
		},
		{
			"buffer":0,
			"byteLength":77208,
			"byteOffset":115812,
			"target":34962
		},
		{
			"buffer":0,
			"byteLength":77208,
			"byteOffset":193020,
			"target":34962
		},
		{
			"buffer":0,
			"byteLength":115812,
			"byteOffset":270228,
			"target":34962
		},
		{
			"buffer":0,
			"byteLength":56688,
			"byteOffset":386040,
			"target":34963
		}
	],
	"buffers":[
		{
			"byteLength":442728,
			"uri":"tenPlace.bin"
		}
	]
}
