{
	"asset":{
		"generator":"Khronos glTF Blender I/O v3.5.30",
		"version":"2.0"
	},
	"scene":0,
	"scenes":[
		{
			"name":"Scene",
			"nodes":[
				0
			]
		}
	],
	"nodes":[
		{
			"mesh":0,
			"name":"\u30c6\u30ad\u30b9\u30c8",
			"scale":[
				5,
				5,
				5
			]
		}
	],
	"materials":[
		{
			"doubleSided":true,
			"name":"\u30de\u30c6\u30ea\u30a2\u30eb",
			"pbrMetallicRoughness":{
				"baseColorFactor":[
					0.8000000715255737,
					0.7335630059242249,
					0,
					1
				],
				"metallicFactor":0,
				"roughnessFactor":0.5
			}
		}
	],
	"meshes":[
		{
			"name":"\u30c6\u30ad\u30b9\u30c8",
			"primitives":[
				{
					"attributes":{
						"POSITION":0,
						"TEXCOORD_0":1,
						"NORMAL":2
					},
					"indices":3,
					"material":0
				}
			]
		}
	],
	"accessors":[
		{
			"bufferView":0,
			"componentType":5126,
			"count":1206,
			"max":[
				2.36306095123291,
				0.009999999776482582,
				0.4943351149559021
			],
			"min":[
				-2.3762388229370117,
				-0.009999999776482582,
				-0.4122796654701233
			],
			"type":"VEC3"
		},
		{
			"bufferView":1,
			"componentType":5126,
			"count":1206,
			"type":"VEC2"
		},
		{
			"bufferView":2,
			"componentType":5126,
			"count":1206,
			"type":"VEC3"
		},
		{
			"bufferView":3,
			"componentType":5123,
			"count":3384,
			"type":"SCALAR"
		}
	],
	"bufferViews":[
		{
			"buffer":0,
			"byteLength":14472,
			"byteOffset":0,
			"target":34962
		},
		{
			"buffer":0,
			"byteLength":9648,
			"byteOffset":14472,
			"target":34962
		},
		{
			"buffer":0,
			"byteLength":14472,
			"byteOffset":24120,
			"target":34962
		},
		{
			"buffer":0,
			"byteLength":6768,
			"byteOffset":38592,
			"target":34963
		}
	],
	"buffers":[
		{
			"byteLength":45360,
			"uri":"title.bin"
		}
	]
}
